<svg width="39" height="39" viewBox="0 0 39 39" fill="none" xmlns="http://www.w3.org/2000/svg">
<g clip-path="url(#clip0_201_10187)">
<g clip-path="url(#clip1_201_10187)">
<circle cx="19.5" cy="19.5" r="19.5" fill="white"/>
<g clip-path="url(#clip2_201_10187)">
<path d="M19.951 10.6162C17.3225 10.6162 15.1738 12.7649 15.1738 15.3934C15.1738 18.0218 17.3225 20.1705 19.951 20.1705C22.5795 20.1705 24.7281 18.0218 24.7281 15.3934C24.7281 12.7649 22.5795 10.6162 19.951 10.6162Z" fill="white"/>
<g clip-path="url(#clip3_201_10187)">
<g clip-path="url(#clip4_201_10187)">
<path d="M28.1551 23.9876C28.0299 23.6746 27.8631 23.3825 27.6753 23.1114C26.7157 21.6928 25.2346 20.7541 23.5657 20.5246C23.3572 20.5037 23.1277 20.5454 22.9608 20.6706C22.0846 21.3173 21.0416 21.6511 19.9568 21.6511C18.872 21.6511 17.829 21.3173 16.9528 20.6706C16.7859 20.5455 16.5564 20.4829 16.3479 20.5246C14.679 20.7541 13.177 21.6928 12.2383 23.1114C12.0505 23.3825 11.8836 23.6955 11.7585 23.9876C11.6959 24.1127 11.7168 24.2587 11.7793 24.3839C11.9462 24.676 12.1548 24.968 12.3426 25.2184C12.6346 25.6147 12.9475 25.9693 13.3022 26.3031C13.5942 26.5951 13.928 26.8663 14.2618 27.1375C15.9098 28.3684 17.8916 29.015 19.9359 29.015C21.9803 29.015 23.9621 28.3683 25.6101 27.1375C25.9439 26.8872 26.2776 26.5951 26.5697 26.3031C26.9035 25.9693 27.2372 25.6147 27.5293 25.2184C27.7379 24.9472 27.9257 24.676 28.0926 24.3839C28.1968 24.2587 28.2177 24.1127 28.1551 23.9876H28.1551Z" fill="white"/>
</g>
</g>
</g>
</g>
<g clip-path="url(#clip5_201_10187)">
<path d="M15.8448 30.5319C14.7168 30.5319 13.8096 29.6246 13.8096 28.4966C13.8096 27.3687 14.7168 26.4614 15.8448 26.4614C16.9727 26.4614 17.88 27.3687 17.88 28.4966C17.88 29.6246 16.9727 30.5319 15.8448 30.5319Z" fill="#005B56"/>
<path d="M24.0069 30.5319C22.8789 30.5319 21.9717 29.6246 21.9717 28.4966C21.9717 27.3687 22.8789 26.4614 24.0069 26.4614C25.1349 26.4614 26.0421 27.3687 26.0421 28.4966C26.0421 29.6246 25.1349 30.5319 24.0069 30.5319Z" fill="#005B56"/>
<g clip-path="url(#clip6_201_10187)">
<path d="M15.9651 25.4071C14.5429 25.4071 13.2678 24.3772 12.9735 22.955L10.4234 11.1115H8.19198C7.62799 11.1115 7.16211 10.6456 7.16211 10.0816C7.16211 9.51766 7.628 9.05176 8.19198 9.05176H11.2571C11.7475 9.05176 12.1643 9.39505 12.2624 9.86095L12.9735 13.1467H27.6124C27.9066 13.1467 28.2009 13.2939 28.3971 13.5145C28.5932 13.7597 28.6668 14.054 28.6178 14.3482L26.9749 22.9305C26.6806 24.4018 25.4055 25.4316 23.9098 25.4071H16.0631C16.0141 25.4071 15.9896 25.4071 15.965 25.4071L15.9651 25.4071Z" fill="#005B56"/>
</g>
</g>
</g>
<defs>
<clipPath id="clip0_201_10187">
<rect width="39" height="39" fill="white"/>
</clipPath>
<clipPath id="clip1_201_10187">
<rect width="39" height="39" fill="white"/>
</clipPath>
<clipPath id="clip2_201_10187">
<rect width="16.4696" height="18.3989" fill="white" transform="translate(11.7178 10.6162)"/>
</clipPath>
<clipPath id="clip3_201_10187">
<rect width="16.4696" height="8.50332" fill="white" transform="translate(11.7188 20.5117)"/>
</clipPath>
<clipPath id="clip4_201_10187">
<rect width="16.4696" height="8.50332" fill="white" transform="translate(11.7197 20.5117)"/>
</clipPath>
<clipPath id="clip5_201_10187">
<rect width="21.4704" height="21.48" fill="white" transform="translate(7.16211 9.05176)"/>
</clipPath>
<clipPath id="clip6_201_10187">
<rect width="21.4704" height="16.3558" fill="white" transform="translate(7.16211 9.05176)"/>
</clipPath>
</defs>
</svg>
