<svg width="39" height="39" viewBox="0 0 39 39" fill="none" xmlns="http://www.w3.org/2000/svg">
<g clip-path="url(#clip0_211_7853)">
<circle cx="19.5" cy="19.5" r="19.5" fill="white"/>
<g clip-path="url(#clip1_211_7853)">
<path d="M19.9505 10.6162C17.322 10.6162 15.1733 12.7649 15.1733 15.3934C15.1733 18.0218 17.322 20.1705 19.9505 20.1705C22.579 20.1705 24.7276 18.0218 24.7276 15.3934C24.7276 12.7649 22.579 10.6162 19.9505 10.6162Z" fill="white"/>
<g clip-path="url(#clip2_211_7853)">
<g clip-path="url(#clip3_211_7853)">
<path d="M28.1531 23.9876C28.028 23.6746 27.8611 23.3825 27.6734 23.1114C26.7137 21.6928 25.2327 20.7541 23.5638 20.5246C23.3552 20.5037 23.1257 20.5454 22.9588 20.6706C22.0827 21.3173 21.0396 21.6511 19.9548 21.6511C18.8701 21.6511 17.827 21.3173 16.9509 20.6706C16.784 20.5455 16.5545 20.4829 16.3459 20.5246C14.677 20.7541 13.1751 21.6928 12.2363 23.1114C12.0486 23.3825 11.8817 23.6955 11.7565 23.9876C11.694 24.1127 11.7148 24.2587 11.7774 24.3839C11.9443 24.676 12.1529 24.968 12.3406 25.2184C12.6327 25.6147 12.9456 25.9693 13.3002 26.3031C13.5923 26.5951 13.926 26.8663 14.2598 27.1375C15.9078 28.3684 17.8896 29.015 19.934 29.015C21.9784 29.015 23.9602 28.3683 25.6081 27.1375C25.9419 26.8872 26.2757 26.5951 26.5678 26.3031C26.9015 25.9693 27.2353 25.6147 27.5274 25.2184C27.736 24.9472 27.9238 24.676 28.0906 24.3839C28.1949 24.2587 28.2157 24.1127 28.1531 23.9876H28.1531Z" fill="white"/>
</g>
</g>
</g>
<g clip-path="url(#clip4_211_7853)">
<ellipse cx="19.3727" cy="13.1537" rx="6.11879" ry="5.35394" fill="#005B56"/>
<path d="M29.8669 23.9716C29.4148 22.7241 28.282 21.7936 26.8924 21.5284L24.3177 21.0484C21.0195 20.4489 17.625 20.4712 14.3362 21.1139L12.0907 21.5284C10.7034 21.793 9.57385 22.7244 9.12797 23.9716C8.67249 25.1769 8.95589 26.5165 9.86865 27.4727C12.3038 30.0397 15.8115 31.5108 19.4974 31.5108C23.1833 31.5108 26.6911 30.0397 29.1262 27.4727C30.039 26.5165 30.3224 25.1769 29.8669 23.9716V23.9716Z" fill="#005B56"/>
</g>
</g>
<defs>
<clipPath id="clip0_211_7853">
<rect width="39" height="39" fill="white"/>
</clipPath>
<clipPath id="clip1_211_7853">
<rect width="16.4696" height="18.3989" fill="white" transform="translate(11.7173 10.6162)"/>
</clipPath>
<clipPath id="clip2_211_7853">
<rect width="16.4696" height="8.50332" fill="white" transform="translate(11.7178 20.5117)"/>
</clipPath>
<clipPath id="clip3_211_7853">
<rect width="16.4696" height="8.50332" fill="white" transform="translate(11.7183 20.5117)"/>
</clipPath>
<clipPath id="clip4_211_7853">
<rect width="21.4445" height="23.7118" fill="white" transform="translate(8.91406 7.7998)"/>
</clipPath>
</defs>
</svg>
