<svg width="39" height="39" viewBox="0 0 39 39" fill="none" xmlns="http://www.w3.org/2000/svg">
<circle cx="19.5" cy="19.5" r="19.5" fill="white"/>
<path d="M22.256 29.0181H17.6803C17.5503 29.0183 17.4411 29.1143 17.4265 29.2413C17.4154 29.3341 17.4099 29.4274 17.4102 29.5208C17.4102 30.909 18.5554 32.0345 19.9681 32.0345C21.3809 32.0345 22.5261 30.9091 22.5261 29.5208C22.5264 29.4274 22.5209 29.334 22.5098 29.2413C22.4961 29.1139 22.3864 29.0174 22.256 29.0181H22.256Z" fill="#005B56"/>
<path d="M29.6333 27.2847C28.4623 24.9974 27.8506 22.4731 27.8468 19.9126V19.1404C27.9044 16.099 26.4224 13.2278 23.8912 11.4767C23.1652 11.0168 22.3534 10.7031 21.5031 10.5537V9.41152C21.5031 8.57857 20.8159 7.90332 19.9683 7.90332C19.1207 7.90332 18.4335 8.57857 18.4335 9.41152V10.5668C17.3722 10.7643 16.373 11.2041 15.5164 11.8508C13.3045 13.6414 12.0432 16.3247 12.0897 19.1404V19.9126C12.086 22.4731 11.4743 24.9974 10.3032 27.2847C10.2238 27.4404 10.2321 27.6253 10.325 27.7736C10.418 27.9219 10.5824 28.0123 10.7596 28.0127H29.177C29.3545 28.0125 29.5192 27.9219 29.6122 27.7733C29.7052 27.6248 29.7132 27.4395 29.6333 27.2837V27.2847Z" fill="#005B56"/>
</svg>
