<svg width="19" height="18" viewBox="0 0 19 18" fill="none" xmlns="http://www.w3.org/2000/svg">
<path fill-rule="evenodd" clip-rule="evenodd" d="M18.2066 15.3988L14.6527 11.9263C16.8946 8.64717 16.2252 4.2411 13.1051 1.73976C9.98496 -0.761585 5.43184 -0.542325 2.57856 2.24669C-0.274722 5.03569 -0.497508 9.48472 2.0635 12.5326C4.62449 15.5804 9.13395 16.233 12.4891 14.0412L16.0429 17.513C16.6447 18.0866 17.6048 18.0866 18.2066 17.513C18.8039 16.9291 18.8039 15.9827 18.2066 15.3988L18.2066 15.3988ZM8.13565 2.25183C11.1991 2.25183 13.6825 4.67844 13.6825 7.67181C13.6825 10.6652 11.1991 13.0918 8.13565 13.0918C5.0722 13.0918 2.58878 10.6652 2.58878 7.67181C2.59216 4.6798 5.0736 2.25513 8.13565 2.25183Z" fill="#52B9A5"/>
</svg>
