<svg width="173" height="50" viewBox="0 0 173 50" fill="none" xmlns="http://www.w3.org/2000/svg">
<rect width="173" height="50" rx="25" fill="#00195B"/>
<path d="M26.642 31H24.392L28.4886 19.3636H31.0909L35.1932 31H32.9432L29.8352 21.75H29.7443L26.642 31ZM26.7159 26.4375H32.8523V28.1307H26.7159V26.4375ZM39.5648 34.4545C38.8261 34.4545 38.1917 34.3542 37.6614 34.1534C37.1311 33.9564 36.7049 33.6913 36.383 33.358C36.061 33.0246 35.8375 32.6553 35.7125 32.25L37.5648 31.8011C37.6481 31.9716 37.7693 32.1402 37.9284 32.3068C38.0875 32.4773 38.3015 32.6174 38.5705 32.7273C38.8432 32.8409 39.186 32.8977 39.5989 32.8977C40.1822 32.8977 40.6652 32.7557 41.0477 32.4716C41.4303 32.1913 41.6216 31.7292 41.6216 31.0852V29.4318H41.5193C41.4133 29.6439 41.258 29.8617 41.0534 30.0852C40.8527 30.3087 40.5856 30.4962 40.2523 30.6477C39.9227 30.7992 39.508 30.875 39.008 30.875C38.3375 30.875 37.7295 30.7178 37.1841 30.4034C36.6424 30.0852 36.2106 29.6117 35.8886 28.983C35.5705 28.3504 35.4114 27.5587 35.4114 26.608C35.4114 25.6496 35.5705 24.8409 35.8886 24.1818C36.2106 23.5189 36.6443 23.017 37.1898 22.6761C37.7352 22.3314 38.3432 22.1591 39.0136 22.1591C39.525 22.1591 39.9455 22.2462 40.275 22.4205C40.6083 22.5909 40.8735 22.7973 41.0705 23.0398C41.2674 23.2784 41.417 23.5038 41.5193 23.7159H41.633V22.2727H43.6614V31.142C43.6614 31.8883 43.4833 32.5057 43.1273 32.9943C42.7712 33.483 42.2845 33.8485 41.667 34.0909C41.0496 34.3333 40.3489 34.4545 39.5648 34.4545ZM39.5818 29.2614C40.0174 29.2614 40.3886 29.1553 40.6955 28.9432C41.0023 28.7311 41.2352 28.4261 41.3943 28.0284C41.5534 27.6307 41.633 27.1534 41.633 26.5966C41.633 26.0473 41.5534 25.5663 41.3943 25.1534C41.239 24.7405 41.008 24.4205 40.7011 24.1932C40.3981 23.9621 40.025 23.8466 39.5818 23.8466C39.1235 23.8466 38.7409 23.9659 38.4341 24.2045C38.1273 24.4432 37.8962 24.7708 37.7409 25.1875C37.5856 25.6004 37.508 26.0701 37.508 26.5966C37.508 27.1307 37.5856 27.5985 37.7409 28C37.9 28.3977 38.133 28.7083 38.4398 28.9318C38.7504 29.1515 39.1311 29.2614 39.5818 29.2614ZM45.1693 31V22.2727H47.1636V23.7273H47.2545C47.4136 23.2235 47.6864 22.8352 48.0727 22.5625C48.4629 22.286 48.908 22.1477 49.408 22.1477C49.5216 22.1477 49.6485 22.1534 49.7886 22.1648C49.9326 22.1723 50.0519 22.1856 50.1466 22.2045V24.0966C50.0595 24.0663 49.9212 24.0398 49.7318 24.017C49.5462 23.9905 49.3663 23.9773 49.192 23.9773C48.817 23.9773 48.4799 24.0587 48.1807 24.2216C47.8852 24.3807 47.6523 24.6023 47.4818 24.8864C47.3114 25.1705 47.2261 25.4981 47.2261 25.8693V31H45.1693ZM54.4173 31.1705C53.5423 31.1705 52.7866 30.9886 52.1503 30.625C51.5177 30.2576 51.031 29.7386 50.6901 29.0682C50.3491 28.3939 50.1787 27.6004 50.1787 26.6875C50.1787 25.7898 50.3491 25.0019 50.6901 24.3239C51.0348 23.642 51.5158 23.1117 52.1332 22.733C52.7507 22.3504 53.476 22.1591 54.3094 22.1591C54.8473 22.1591 55.3548 22.2462 55.8321 22.4205C56.3132 22.5909 56.7374 22.8561 57.1048 23.2159C57.476 23.5758 57.7677 24.0341 57.9798 24.5909C58.192 25.1439 58.298 25.803 58.298 26.5682V27.1989H51.1446V25.8125H56.3264C56.3226 25.4186 56.2374 25.0682 56.0707 24.7614C55.9041 24.4508 55.6711 24.2064 55.3719 24.0284C55.0764 23.8504 54.7317 23.7614 54.3378 23.7614C53.9173 23.7614 53.548 23.8636 53.2298 24.0682C52.9116 24.2689 52.6635 24.5341 52.4855 24.8636C52.3113 25.1894 52.2223 25.5473 52.2185 25.9375V27.1477C52.2185 27.6553 52.3113 28.0909 52.4969 28.4545C52.6825 28.8144 52.942 29.0909 53.2753 29.2841C53.6086 29.4735 53.9988 29.5682 54.4457 29.5682C54.745 29.5682 55.0158 29.5265 55.2582 29.4432C55.5007 29.3561 55.7109 29.2292 55.8889 29.0625C56.067 28.8958 56.2014 28.6894 56.2923 28.4432L58.2128 28.6591C58.0916 29.1667 57.8605 29.6098 57.5196 29.9886C57.1825 30.3636 56.7507 30.6553 56.2241 30.8636C55.6976 31.0682 55.0954 31.1705 54.4173 31.1705ZM63.2335 34.4545C62.4949 34.4545 61.8604 34.3542 61.3301 34.1534C60.7998 33.9564 60.3737 33.6913 60.0517 33.358C59.7297 33.0246 59.5062 32.6553 59.3812 32.25L61.2335 31.8011C61.3169 31.9716 61.4381 32.1402 61.5972 32.3068C61.7562 32.4773 61.9703 32.6174 62.2392 32.7273C62.5119 32.8409 62.8547 32.8977 63.2676 32.8977C63.8509 32.8977 64.3339 32.7557 64.7165 32.4716C65.0991 32.1913 65.2903 31.7292 65.2903 31.0852V29.4318H65.1881C65.082 29.6439 64.9267 29.8617 64.7222 30.0852C64.5214 30.3087 64.2544 30.4962 63.921 30.6477C63.5915 30.7992 63.1767 30.875 62.6767 30.875C62.0062 30.875 61.3983 30.7178 60.8528 30.4034C60.3112 30.0852 59.8794 29.6117 59.5574 28.983C59.2392 28.3504 59.0801 27.5587 59.0801 26.608C59.0801 25.6496 59.2392 24.8409 59.5574 24.1818C59.8794 23.5189 60.3131 23.017 60.8585 22.6761C61.404 22.3314 62.0119 22.1591 62.6824 22.1591C63.1937 22.1591 63.6142 22.2462 63.9437 22.4205C64.2771 22.5909 64.5422 22.7973 64.7392 23.0398C64.9362 23.2784 65.0858 23.5038 65.1881 23.7159H65.3017V22.2727H67.3301V31.142C67.3301 31.8883 67.1521 32.5057 66.796 32.9943C66.44 33.483 65.9532 33.8485 65.3358 34.0909C64.7184 34.3333 64.0176 34.4545 63.2335 34.4545ZM63.2506 29.2614C63.6862 29.2614 64.0574 29.1553 64.3642 28.9432C64.671 28.7311 64.904 28.4261 65.0631 28.0284C65.2222 27.6307 65.3017 27.1534 65.3017 26.5966C65.3017 26.0473 65.2222 25.5663 65.0631 25.1534C64.9078 24.7405 64.6767 24.4205 64.3699 24.1932C64.0669 23.9621 63.6937 23.8466 63.2506 23.8466C62.7922 23.8466 62.4097 23.9659 62.1028 24.2045C61.796 24.4432 61.565 24.7708 61.4097 25.1875C61.2544 25.6004 61.1767 26.0701 61.1767 26.5966C61.1767 27.1307 61.2544 27.5985 61.4097 28C61.5687 28.3977 61.8017 28.7083 62.1085 28.9318C62.4191 29.1515 62.7998 29.2614 63.2506 29.2614ZM71.3494 31.1761C70.7964 31.1761 70.2983 31.0777 69.8551 30.8807C69.4157 30.6799 69.0672 30.3845 68.8097 29.9943C68.5559 29.6042 68.429 29.1231 68.429 28.5511C68.429 28.0587 68.5199 27.6515 68.7017 27.3295C68.8835 27.0076 69.1316 26.75 69.446 26.5568C69.7604 26.3636 70.1146 26.2178 70.5085 26.1193C70.9063 26.017 71.3172 25.9432 71.7415 25.8977C72.2528 25.8447 72.6676 25.7973 72.9858 25.7557C73.304 25.7102 73.535 25.642 73.679 25.5511C73.8267 25.4564 73.9006 25.3106 73.9006 25.1136V25.0795C73.9006 24.6515 73.7737 24.3201 73.5199 24.0852C73.2661 23.8504 72.9006 23.733 72.4233 23.733C71.9195 23.733 71.5199 23.8428 71.2244 24.0625C70.9328 24.2822 70.7358 24.5417 70.6335 24.8409L68.7131 24.5682C68.8646 24.0379 69.1146 23.5947 69.4631 23.2386C69.8116 22.8788 70.2377 22.6098 70.7415 22.4318C71.2453 22.25 71.8021 22.1591 72.4119 22.1591C72.8324 22.1591 73.2509 22.2083 73.6676 22.3068C74.0843 22.4053 74.465 22.5682 74.8097 22.7955C75.1544 23.0189 75.4309 23.3239 75.6392 23.7102C75.8513 24.0966 75.9574 24.5795 75.9574 25.1591V31H73.9801V29.8011H73.9119C73.7869 30.0436 73.6108 30.2708 73.3835 30.483C73.16 30.6913 72.8778 30.8598 72.5369 30.9886C72.1998 31.1136 71.804 31.1761 71.3494 31.1761ZM71.8835 29.6648C72.2964 29.6648 72.6544 29.5833 72.9574 29.4205C73.2604 29.2538 73.4934 29.0341 73.6562 28.7614C73.8229 28.4886 73.9062 28.1913 73.9062 27.8693V26.8409C73.8419 26.8939 73.732 26.9432 73.5767 26.9886C73.4252 27.0341 73.2547 27.0739 73.0653 27.108C72.8759 27.142 72.6884 27.1723 72.5028 27.1989C72.3172 27.2254 72.1563 27.2481 72.0199 27.267C71.7131 27.3087 71.4384 27.3769 71.196 27.4716C70.9536 27.5663 70.7623 27.6989 70.6222 27.8693C70.482 28.036 70.4119 28.2519 70.4119 28.517C70.4119 28.8958 70.5502 29.1818 70.8267 29.375C71.1032 29.5682 71.4555 29.6648 71.8835 29.6648ZM77.4256 31V22.2727H79.4199V23.7273H79.5108C79.6699 23.2235 79.9426 22.8352 80.329 22.5625C80.7191 22.286 81.1642 22.1477 81.6642 22.1477C81.7778 22.1477 81.9047 22.1534 82.0449 22.1648C82.1888 22.1723 82.3081 22.1856 82.4028 22.2045V24.0966C82.3157 24.0663 82.1775 24.0398 81.9881 24.017C81.8025 23.9905 81.6225 23.9773 81.4483 23.9773C81.0733 23.9773 80.7362 24.0587 80.4369 24.2216C80.1415 24.3807 79.9085 24.6023 79.7381 24.8864C79.5676 25.1705 79.4824 25.4981 79.4824 25.8693V31H77.4256ZM89.0494 31.1761C88.4964 31.1761 87.9983 31.0777 87.5551 30.8807C87.1157 30.6799 86.7672 30.3845 86.5097 29.9943C86.2559 29.6042 86.129 29.1231 86.129 28.5511C86.129 28.0587 86.2199 27.6515 86.4017 27.3295C86.5835 27.0076 86.8316 26.75 87.146 26.5568C87.4604 26.3636 87.8146 26.2178 88.2085 26.1193C88.6063 26.017 89.0172 25.9432 89.4415 25.8977C89.9528 25.8447 90.3676 25.7973 90.6858 25.7557C91.004 25.7102 91.235 25.642 91.379 25.5511C91.5267 25.4564 91.6006 25.3106 91.6006 25.1136V25.0795C91.6006 24.6515 91.4737 24.3201 91.2199 24.0852C90.9661 23.8504 90.6006 23.733 90.1233 23.733C89.6195 23.733 89.2199 23.8428 88.9244 24.0625C88.6328 24.2822 88.4358 24.5417 88.3335 24.8409L86.4131 24.5682C86.5646 24.0379 86.8146 23.5947 87.1631 23.2386C87.5116 22.8788 87.9377 22.6098 88.4415 22.4318C88.9453 22.25 89.5021 22.1591 90.1119 22.1591C90.5324 22.1591 90.9509 22.2083 91.3676 22.3068C91.7843 22.4053 92.165 22.5682 92.5097 22.7955C92.8544 23.0189 93.1309 23.3239 93.3392 23.7102C93.5513 24.0966 93.6574 24.5795 93.6574 25.1591V31H91.6801V29.8011H91.6119C91.4869 30.0436 91.3108 30.2708 91.0835 30.483C90.86 30.6913 90.5778 30.8598 90.2369 30.9886C89.8998 31.1136 89.504 31.1761 89.0494 31.1761ZM89.5835 29.6648C89.9964 29.6648 90.3544 29.5833 90.6574 29.4205C90.9604 29.2538 91.1934 29.0341 91.3563 28.7614C91.5229 28.4886 91.6063 28.1913 91.6063 27.8693V26.8409C91.5419 26.8939 91.432 26.9432 91.2767 26.9886C91.1252 27.0341 90.9547 27.0739 90.7653 27.108C90.5759 27.142 90.3884 27.1723 90.2028 27.1989C90.0172 27.2254 89.8563 27.2481 89.7199 27.267C89.4131 27.3087 89.1384 27.3769 88.896 27.4716C88.6536 27.5663 88.4623 27.6989 88.3222 27.8693C88.182 28.036 88.1119 28.2519 88.1119 28.517C88.1119 28.8958 88.2502 29.1818 88.5267 29.375C88.8032 29.5682 89.1555 29.6648 89.5835 29.6648ZM97.1824 19.3636V31H95.1256V19.3636H97.1824ZM105.873 31.1705C105.002 31.1705 104.254 30.9792 103.629 30.5966C103.007 30.214 102.528 29.6856 102.191 29.0114C101.858 28.3333 101.691 27.553 101.691 26.6705C101.691 25.7841 101.862 25.0019 102.203 24.3239C102.543 23.642 103.025 23.1117 103.646 22.733C104.271 22.3504 105.009 22.1591 105.862 22.1591C106.57 22.1591 107.197 22.2898 107.742 22.5511C108.292 22.8087 108.729 23.1742 109.055 23.6477C109.381 24.1174 109.566 24.6667 109.612 25.2955H107.646C107.566 24.875 107.377 24.5246 107.078 24.2443C106.782 23.9602 106.386 23.8182 105.89 23.8182C105.47 23.8182 105.1 23.9318 104.782 24.1591C104.464 24.3826 104.216 24.7045 104.038 25.125C103.864 25.5455 103.776 26.0492 103.776 26.6364C103.776 27.2311 103.864 27.7424 104.038 28.1705C104.212 28.5947 104.456 28.9223 104.771 29.1534C105.089 29.3807 105.462 29.4943 105.89 29.4943C106.193 29.4943 106.464 29.4375 106.703 29.3239C106.945 29.2064 107.148 29.0379 107.311 28.8182C107.473 28.5985 107.585 28.3314 107.646 28.017H109.612C109.562 28.6345 109.381 29.1818 109.066 29.6591C108.752 30.1326 108.324 30.5038 107.782 30.7727C107.24 31.0379 106.604 31.1705 105.873 31.1705ZM113.212 31.1761C112.659 31.1761 112.161 31.0777 111.718 30.8807C111.278 30.6799 110.93 30.3845 110.672 29.9943C110.418 29.6042 110.291 29.1231 110.291 28.5511C110.291 28.0587 110.382 27.6515 110.564 27.3295C110.746 27.0076 110.994 26.75 111.309 26.5568C111.623 26.3636 111.977 26.2178 112.371 26.1193C112.769 26.017 113.18 25.9432 113.604 25.8977C114.115 25.8447 114.53 25.7973 114.848 25.7557C115.166 25.7102 115.398 25.642 115.541 25.5511C115.689 25.4564 115.763 25.3106 115.763 25.1136V25.0795C115.763 24.6515 115.636 24.3201 115.382 24.0852C115.129 23.8504 114.763 23.733 114.286 23.733C113.782 23.733 113.382 23.8428 113.087 24.0625C112.795 24.2822 112.598 24.5417 112.496 24.8409L110.576 24.5682C110.727 24.0379 110.977 23.5947 111.326 23.2386C111.674 22.8788 112.1 22.6098 112.604 22.4318C113.108 22.25 113.665 22.1591 114.274 22.1591C114.695 22.1591 115.113 22.2083 115.53 22.3068C115.947 22.4053 116.327 22.5682 116.672 22.7955C117.017 23.0189 117.293 23.3239 117.502 23.7102C117.714 24.0966 117.82 24.5795 117.82 25.1591V31H115.843V29.8011H115.774C115.649 30.0436 115.473 30.2708 115.246 30.483C115.023 30.6913 114.74 30.8598 114.399 30.9886C114.062 31.1136 113.666 31.1761 113.212 31.1761ZM113.746 29.6648C114.159 29.6648 114.517 29.5833 114.82 29.4205C115.123 29.2538 115.356 29.0341 115.519 28.7614C115.685 28.4886 115.769 28.1913 115.769 27.8693V26.8409C115.704 26.8939 115.595 26.9432 115.439 26.9886C115.288 27.0341 115.117 27.0739 114.928 27.108C114.738 27.142 114.551 27.1723 114.365 27.1989C114.18 27.2254 114.019 27.2481 113.882 27.267C113.576 27.3087 113.301 27.3769 113.059 27.4716C112.816 27.5663 112.625 27.6989 112.485 27.8693C112.345 28.036 112.274 28.2519 112.274 28.517C112.274 28.8958 112.413 29.1818 112.689 29.375C112.966 29.5682 113.318 29.6648 113.746 29.6648ZM119.288 31V22.2727H121.282V23.7273H121.373C121.532 23.2235 121.805 22.8352 122.191 22.5625C122.582 22.286 123.027 22.1477 123.527 22.1477C123.64 22.1477 123.767 22.1534 123.907 22.1648C124.051 22.1723 124.171 22.1856 124.265 22.2045V24.0966C124.178 24.0663 124.04 24.0398 123.851 24.017C123.665 23.9905 123.485 23.9773 123.311 23.9773C122.936 23.9773 122.599 24.0587 122.299 24.2216C122.004 24.3807 121.771 24.6023 121.601 24.8864C121.43 25.1705 121.345 25.4981 121.345 25.8693V31H119.288ZM125.032 31V22.2727H127.026V23.7273H127.117C127.276 23.2235 127.549 22.8352 127.935 22.5625C128.325 22.286 128.77 22.1477 129.27 22.1477C129.384 22.1477 129.511 22.1534 129.651 22.1648C129.795 22.1723 129.914 22.1856 130.009 22.2045V24.0966C129.922 24.0663 129.784 24.0398 129.594 24.017C129.409 23.9905 129.229 23.9773 129.055 23.9773C128.68 23.9773 128.342 24.0587 128.043 24.2216C127.748 24.3807 127.515 24.6023 127.344 24.8864C127.174 25.1705 127.089 25.4981 127.089 25.8693V31H125.032ZM130.776 31V22.2727H132.832V31H130.776ZM131.81 21.0341C131.484 21.0341 131.204 20.9261 130.969 20.7102C130.734 20.4905 130.616 20.2273 130.616 19.9205C130.616 19.6098 130.734 19.3466 130.969 19.1307C131.204 18.911 131.484 18.8011 131.81 18.8011C132.139 18.8011 132.42 18.911 132.651 19.1307C132.885 19.3466 133.003 19.6098 133.003 19.9205C133.003 20.2273 132.885 20.4905 132.651 20.7102C132.42 20.9261 132.139 21.0341 131.81 21.0341ZM138.705 22.2727V23.8636H133.688V22.2727H138.705ZM134.927 20.1818H136.984V28.375C136.984 28.6515 137.025 28.8636 137.109 29.0114C137.196 29.1553 137.31 29.2538 137.45 29.3068C137.59 29.3598 137.745 29.3864 137.916 29.3864C138.044 29.3864 138.162 29.3769 138.268 29.358C138.378 29.339 138.461 29.322 138.518 29.3068L138.864 30.9148C138.755 30.9527 138.597 30.9943 138.393 31.0398C138.192 31.0852 137.946 31.1117 137.654 31.1193C137.139 31.1345 136.675 31.0568 136.262 30.8864C135.849 30.7121 135.522 30.4432 135.279 30.0795C135.041 29.7159 134.923 29.2614 134.927 28.7159V20.1818ZM143.539 31.1705C142.686 31.1705 141.948 30.983 141.323 30.608C140.698 30.233 140.213 29.7083 139.868 29.0341C139.527 28.3598 139.357 27.572 139.357 26.6705C139.357 25.7689 139.527 24.9792 139.868 24.3011C140.213 23.6231 140.698 23.0966 141.323 22.7216C141.948 22.3466 142.686 22.1591 143.539 22.1591C144.391 22.1591 145.13 22.3466 145.755 22.7216C146.38 23.0966 146.863 23.6231 147.203 24.3011C147.548 24.9792 147.72 25.7689 147.72 26.6705C147.72 27.572 147.548 28.3598 147.203 29.0341C146.863 29.7083 146.38 30.233 145.755 30.608C145.13 30.983 144.391 31.1705 143.539 31.1705ZM143.55 29.5227C144.012 29.5227 144.398 29.3958 144.709 29.142C145.02 28.8845 145.251 28.5398 145.402 28.108C145.558 27.6761 145.635 27.1951 145.635 26.6648C145.635 26.1307 145.558 25.6477 145.402 25.2159C145.251 24.7803 145.02 24.4337 144.709 24.1761C144.398 23.9186 144.012 23.7898 143.55 23.7898C143.077 23.7898 142.683 23.9186 142.368 24.1761C142.058 24.4337 141.825 24.7803 141.669 25.2159C141.518 25.6477 141.442 26.1307 141.442 26.6648C141.442 27.1951 141.518 27.6761 141.669 28.108C141.825 28.5398 142.058 28.8845 142.368 29.142C142.683 29.3958 143.077 29.5227 143.55 29.5227Z" fill="white"/>
</svg>
