<svg width="306" height="47" viewBox="0 0 306 47" fill="none" xmlns="http://www.w3.org/2000/svg">
<rect width="306" height="46" rx="10" fill="#F0F0F0"/>
<path d="M22.5 31.5C28.0228 31.5 32.5 27.0228 32.5 21.5C32.5 15.9772 28.0228 11.5 22.5 11.5C16.9772 11.5 12.5 15.9772 12.5 21.5C12.5 27.0228 16.9772 31.5 22.5 31.5Z" stroke="#454545" stroke-width="2" stroke-linecap="round" stroke-linejoin="round"/>
<path d="M25.5 25.5L23.086 23.086C22.7109 22.711 22.5001 22.2024 22.5 21.672V15.5" stroke="#454545" stroke-width="2" stroke-linecap="round" stroke-linejoin="round"/>
<path d="M44.6761 18.9119V17.8182H52.3125V18.9119H49.1108V28H47.8778V18.9119H44.6761ZM54.0563 28V20.3636H55.2296V28H54.0563ZM54.6529 19.0909C54.4242 19.0909 54.227 19.013 54.0613 18.8572C53.8989 18.7015 53.8176 18.5142 53.8176 18.2955C53.8176 18.0767 53.8989 17.8894 54.0613 17.7337C54.227 17.5779 54.4242 17.5 54.6529 17.5C54.8816 17.5 55.0771 17.5779 55.2395 17.7337C55.4052 17.8894 55.4881 18.0767 55.4881 18.2955C55.4881 18.5142 55.4052 18.7015 55.2395 18.8572C55.0771 19.013 54.8816 19.0909 54.6529 19.0909ZM60.5803 28.1591C59.8445 28.1591 59.2098 27.9967 58.6761 27.6719C58.1458 27.3438 57.7365 26.8864 57.4482 26.2997C57.1631 25.7098 57.0206 25.0237 57.0206 24.2415C57.0206 23.4593 57.1631 22.7699 57.4482 22.1733C57.7365 21.5734 58.1375 21.1061 58.6513 20.7713C59.1683 20.4332 59.7715 20.2642 60.4609 20.2642C60.8587 20.2642 61.2514 20.3305 61.6392 20.4631C62.027 20.5956 62.38 20.8111 62.6982 21.1094C63.0163 21.4044 63.2699 21.7955 63.4588 22.2827C63.6477 22.7699 63.7422 23.3698 63.7422 24.0824V24.5795H57.8558V23.5653H62.549C62.549 23.1345 62.4628 22.75 62.2905 22.4119C62.1214 22.0739 61.8795 21.8071 61.5646 21.6115C61.2531 21.416 60.8852 21.3182 60.4609 21.3182C59.9936 21.3182 59.5893 21.4342 59.2479 21.6662C58.9098 21.8949 58.6496 22.1932 58.4673 22.5611C58.285 22.929 58.1939 23.3234 58.1939 23.7443V24.4205C58.1939 24.9972 58.2933 25.486 58.4922 25.8871C58.6944 26.2848 58.9744 26.5881 59.3324 26.7969C59.6903 27.0024 60.1063 27.1051 60.5803 27.1051C60.8885 27.1051 61.1669 27.062 61.4155 26.9759C61.6674 26.8864 61.8845 26.7538 62.0668 26.5781C62.2491 26.3991 62.3899 26.1771 62.4893 25.9119L63.6229 26.2301C63.5036 26.6146 63.303 26.9527 63.0213 27.2443C62.7396 27.5327 62.3916 27.758 61.9773 27.9205C61.563 28.0795 61.0973 28.1591 60.5803 28.1591ZM65.527 28V20.3636H66.6605V21.5568H66.7599C66.919 21.1491 67.1759 20.8326 67.5305 20.6072C67.8852 20.3786 68.3111 20.2642 68.8082 20.2642C69.312 20.2642 69.7313 20.3786 70.0661 20.6072C70.4041 20.8326 70.6676 21.1491 70.8565 21.5568H70.9361C71.1316 21.1624 71.425 20.8492 71.8161 20.6172C72.2072 20.3819 72.6761 20.2642 73.223 20.2642C73.9058 20.2642 74.4643 20.478 74.8984 20.9055C75.3326 21.3298 75.5497 21.991 75.5497 22.8892V28H74.3764V22.8892C74.3764 22.3258 74.2223 21.9231 73.9141 21.6811C73.6058 21.4392 73.2429 21.3182 72.8253 21.3182C72.2884 21.3182 71.8724 21.4806 71.5774 21.8054C71.2824 22.1269 71.1349 22.5346 71.1349 23.0284V28H69.9418V22.7699C69.9418 22.3357 69.8009 21.986 69.5192 21.7209C69.2375 21.4524 68.8745 21.3182 68.4304 21.3182C68.1255 21.3182 67.8404 21.3994 67.5753 21.5618C67.3134 21.7242 67.1013 21.9496 66.9389 22.2379C66.7798 22.523 66.7003 22.8527 66.7003 23.2273V28H65.527ZM77.695 30.8636V20.3636H78.8285V21.5767H78.9677C79.0539 21.4441 79.1732 21.2751 79.3256 21.0696C79.4814 20.8608 79.7035 20.6752 79.9918 20.5128C80.2835 20.3471 80.6779 20.2642 81.1751 20.2642C81.8181 20.2642 82.3848 20.425 82.8754 20.7464C83.3659 21.0679 83.7487 21.5237 84.0238 22.1136C84.2989 22.7036 84.4364 23.3996 84.4364 24.2017C84.4364 25.0104 84.2989 25.7114 84.0238 26.3047C83.7487 26.8946 83.3675 27.352 82.8803 27.6768C82.3931 27.9983 81.8313 28.1591 81.195 28.1591C80.7044 28.1591 80.3117 28.0779 80.0167 27.9155C79.7217 27.7498 79.4947 27.5625 79.3356 27.3537C79.1765 27.1416 79.0539 26.9659 78.9677 26.8267H78.8683V30.8636H77.695ZM78.8484 24.1818C78.8484 24.7585 78.9329 25.2673 79.1019 25.7081C79.271 26.1456 79.5179 26.4886 79.8427 26.7372C80.1675 26.9825 80.5652 27.1051 81.0359 27.1051C81.5264 27.1051 81.9357 26.9759 82.2638 26.7173C82.5953 26.4555 82.8439 26.1042 83.0096 25.6634C83.1786 25.2192 83.2631 24.7254 83.2631 24.1818C83.2631 23.6449 83.1803 23.161 83.0146 22.7301C82.8522 22.2959 82.6052 21.9529 82.2738 21.701C81.9457 21.4458 81.533 21.3182 81.0359 21.3182C80.5586 21.3182 80.1576 21.4392 79.8327 21.6811C79.5079 21.9197 79.2627 22.2545 79.0969 22.6854C78.9312 23.1129 78.8484 23.6117 78.8484 24.1818ZM89.3285 28.1591C88.6391 28.1591 88.0342 27.995 87.5138 27.6669C86.9968 27.3388 86.5924 26.8797 86.3008 26.2898C86.0124 25.6998 85.8683 25.0104 85.8683 24.2216C85.8683 23.4261 86.0124 22.7318 86.3008 22.1385C86.5924 21.5452 86.9968 21.0845 87.5138 20.7564C88.0342 20.4283 88.6391 20.2642 89.3285 20.2642C90.0179 20.2642 90.6211 20.4283 91.1381 20.7564C91.6585 21.0845 92.0629 21.5452 92.3512 22.1385C92.6429 22.7318 92.7887 23.4261 92.7887 24.2216C92.7887 25.0104 92.6429 25.6998 92.3512 26.2898C92.0629 26.8797 91.6585 27.3388 91.1381 27.6669C90.6211 27.995 90.0179 28.1591 89.3285 28.1591ZM89.3285 27.1051C89.8522 27.1051 90.283 26.9709 90.6211 26.7024C90.9592 26.4339 91.2094 26.081 91.3718 25.6435C91.5342 25.206 91.6154 24.732 91.6154 24.2216C91.6154 23.7112 91.5342 23.2356 91.3718 22.7947C91.2094 22.3539 90.9592 21.9976 90.6211 21.7259C90.283 21.4541 89.8522 21.3182 89.3285 21.3182C88.8048 21.3182 88.3739 21.4541 88.0359 21.7259C87.6978 21.9976 87.4476 22.3539 87.2852 22.7947C87.1228 23.2356 87.0415 23.7112 87.0415 24.2216C87.0415 24.732 87.1228 25.206 87.2852 25.6435C87.4476 26.081 87.6978 26.4339 88.0359 26.7024C88.3739 26.9709 88.8048 27.1051 89.3285 27.1051ZM101.401 28.1591C100.764 28.1591 100.203 27.9983 99.7154 27.6768C99.2282 27.352 98.847 26.8946 98.5719 26.3047C98.2968 25.7114 98.1593 25.0104 98.1593 24.2017C98.1593 23.3996 98.2968 22.7036 98.5719 22.1136C98.847 21.5237 99.2298 21.0679 99.7203 20.7464C100.211 20.425 100.778 20.2642 101.421 20.2642C101.918 20.2642 102.311 20.3471 102.599 20.5128C102.891 20.6752 103.113 20.8608 103.265 21.0696C103.421 21.2751 103.542 21.4441 103.628 21.5767H103.727V17.8182H104.901V28H103.767V26.8267H103.628C103.542 26.9659 103.419 27.1416 103.26 27.3537C103.101 27.5625 102.874 27.7498 102.579 27.9155C102.284 28.0779 101.891 28.1591 101.401 28.1591ZM101.56 27.1051C102.03 27.1051 102.428 26.9825 102.753 26.7372C103.078 26.4886 103.325 26.1456 103.494 25.7081C103.663 25.2673 103.747 24.7585 103.747 24.1818C103.747 23.6117 103.664 23.1129 103.499 22.6854C103.333 22.2545 103.088 21.9197 102.763 21.6811C102.438 21.4392 102.037 21.3182 101.56 21.3182C101.063 21.3182 100.648 21.4458 100.317 21.701C99.9888 21.9529 99.7419 22.2959 99.5762 22.7301C99.4138 23.161 99.3326 23.6449 99.3326 24.1818C99.3326 24.7254 99.4154 25.2192 99.5811 25.6634C99.7502 26.1042 99.9988 26.4555 100.327 26.7173C100.658 26.9759 101.069 27.1051 101.56 27.1051ZM110.414 28.1591C109.678 28.1591 109.044 27.9967 108.51 27.6719C107.98 27.3438 107.57 26.8864 107.282 26.2997C106.997 25.7098 106.855 25.0237 106.855 24.2415C106.855 23.4593 106.997 22.7699 107.282 22.1733C107.57 21.5734 107.972 21.1061 108.485 20.7713C109.002 20.4332 109.606 20.2642 110.295 20.2642C110.693 20.2642 111.085 20.3305 111.473 20.4631C111.861 20.5956 112.214 20.8111 112.532 21.1094C112.85 21.4044 113.104 21.7955 113.293 22.2827C113.482 22.7699 113.576 23.3698 113.576 24.0824V24.5795H107.69V23.5653H112.383C112.383 23.1345 112.297 22.75 112.124 22.4119C111.955 22.0739 111.713 21.8071 111.399 21.6115C111.087 21.416 110.719 21.3182 110.295 21.3182C109.828 21.3182 109.423 21.4342 109.082 21.6662C108.744 21.8949 108.484 22.1932 108.301 22.5611C108.119 22.929 108.028 23.3234 108.028 23.7443V24.4205C108.028 24.9972 108.127 25.486 108.326 25.8871C108.528 26.2848 108.808 26.5881 109.166 26.7969C109.524 27.0024 109.94 27.1051 110.414 27.1051C110.722 27.1051 111.001 27.062 111.249 26.9759C111.501 26.8864 111.718 26.7538 111.901 26.5781C112.083 26.3991 112.224 26.1771 112.323 25.9119L113.457 26.2301C113.338 26.6146 113.137 26.9527 112.855 27.2443C112.574 27.5327 112.226 27.758 111.811 27.9205C111.397 28.0795 110.931 28.1591 110.414 28.1591ZM122.5 28.1591C121.764 28.1591 121.13 27.9967 120.596 27.6719C120.066 27.3438 119.656 26.8864 119.368 26.2997C119.083 25.7098 118.941 25.0237 118.941 24.2415C118.941 23.4593 119.083 22.7699 119.368 22.1733C119.656 21.5734 120.057 21.1061 120.571 20.7713C121.088 20.4332 121.691 20.2642 122.381 20.2642C122.779 20.2642 123.171 20.3305 123.559 20.4631C123.947 20.5956 124.3 20.8111 124.618 21.1094C124.936 21.4044 125.19 21.7955 125.379 22.2827C125.568 22.7699 125.662 23.3698 125.662 24.0824V24.5795H119.776V23.5653H124.469C124.469 23.1345 124.383 22.75 124.21 22.4119C124.041 22.0739 123.799 21.8071 123.485 21.6115C123.173 21.416 122.805 21.3182 122.381 21.3182C121.914 21.3182 121.509 21.4342 121.168 21.6662C120.83 21.8949 120.57 22.1932 120.387 22.5611C120.205 22.929 120.114 23.3234 120.114 23.7443V24.4205C120.114 24.9972 120.213 25.486 120.412 25.8871C120.614 26.2848 120.894 26.5881 121.252 26.7969C121.61 27.0024 122.026 27.1051 122.5 27.1051C122.808 27.1051 123.087 27.062 123.335 26.9759C123.587 26.8864 123.804 26.7538 123.987 26.5781C124.169 26.3991 124.31 26.1771 124.409 25.9119L125.543 26.2301C125.423 26.6146 125.223 26.9527 124.941 27.2443C124.66 27.5327 124.311 27.758 123.897 27.9205C123.483 28.0795 123.017 28.1591 122.5 28.1591ZM128.62 23.4062V28H127.447V20.3636H128.58V21.5568H128.68C128.859 21.169 129.131 20.8575 129.495 20.6222C129.86 20.3835 130.33 20.2642 130.907 20.2642C131.424 20.2642 131.877 20.3703 132.264 20.5824C132.652 20.7912 132.954 21.1094 133.169 21.5369C133.385 21.9612 133.492 22.4981 133.492 23.1477V28H132.319V23.2273C132.319 22.6274 132.163 22.16 131.852 21.8253C131.54 21.4872 131.113 21.3182 130.569 21.3182C130.195 21.3182 129.86 21.3994 129.565 21.5618C129.273 21.7242 129.043 21.9612 128.874 22.2727C128.705 22.5843 128.62 22.9621 128.62 23.4062ZM138.957 20.3636V21.358H135V20.3636H138.957ZM136.153 18.5341H137.327V25.8125C137.327 26.1439 137.375 26.3925 137.471 26.5582C137.57 26.7206 137.696 26.83 137.849 26.8864C138.004 26.9394 138.169 26.9659 138.341 26.9659C138.47 26.9659 138.576 26.9593 138.659 26.946C138.742 26.9295 138.808 26.9162 138.858 26.9062L139.097 27.9602C139.017 27.9901 138.906 28.0199 138.763 28.0497C138.621 28.0829 138.44 28.0994 138.222 28.0994C137.89 28.0994 137.565 28.0282 137.247 27.8857C136.932 27.7431 136.67 27.526 136.462 27.2344C136.256 26.9427 136.153 26.5748 136.153 26.1307V18.5341ZM140.722 28V20.3636H141.856V21.517H141.935C142.075 21.1392 142.326 20.8326 142.691 20.5973C143.056 20.362 143.467 20.2443 143.924 20.2443C144.01 20.2443 144.118 20.246 144.247 20.2493C144.376 20.2526 144.474 20.2576 144.54 20.2642V21.4574C144.501 21.4474 144.41 21.4325 144.267 21.4126C144.128 21.3894 143.98 21.3778 143.825 21.3778C143.453 21.3778 143.122 21.4557 142.83 21.6115C142.542 21.764 142.313 21.9761 142.144 22.2479C141.978 22.5163 141.896 22.8229 141.896 23.1676V28H140.722ZM148.901 28.1591C148.165 28.1591 147.53 27.9967 146.996 27.6719C146.466 27.3438 146.057 26.8864 145.768 26.2997C145.483 25.7098 145.341 25.0237 145.341 24.2415C145.341 23.4593 145.483 22.7699 145.768 22.1733C146.057 21.5734 146.458 21.1061 146.972 20.7713C147.489 20.4332 148.092 20.2642 148.781 20.2642C149.179 20.2642 149.572 20.3305 149.96 20.4631C150.347 20.5956 150.7 20.8111 151.018 21.1094C151.337 21.4044 151.59 21.7955 151.779 22.2827C151.968 22.7699 152.062 23.3698 152.062 24.0824V24.5795H146.176V23.5653H150.869C150.869 23.1345 150.783 22.75 150.611 22.4119C150.442 22.0739 150.2 21.8071 149.885 21.6115C149.573 21.416 149.205 21.3182 148.781 21.3182C148.314 21.3182 147.91 21.4342 147.568 21.6662C147.23 21.8949 146.97 22.1932 146.788 22.5611C146.605 22.929 146.514 23.3234 146.514 23.7443V24.4205C146.514 24.9972 146.614 25.486 146.812 25.8871C147.015 26.2848 147.295 26.5881 147.653 26.7969C148.011 27.0024 148.427 27.1051 148.901 27.1051C149.209 27.1051 149.487 27.062 149.736 26.9759C149.988 26.8864 150.205 26.7538 150.387 26.5781C150.569 26.3991 150.71 26.1771 150.81 25.9119L151.943 26.2301C151.824 26.6146 151.623 26.9527 151.342 27.2443C151.06 27.5327 150.712 27.758 150.298 27.9205C149.883 28.0795 149.418 28.1591 148.901 28.1591ZM156.93 31.0227C156.363 31.0227 155.876 30.9498 155.468 30.804C155.06 30.6615 154.721 30.4725 154.449 30.2372C154.18 30.0052 153.967 29.7566 153.808 29.4915L154.742 28.8352C154.848 28.9744 154.982 29.1335 155.145 29.3125C155.307 29.4948 155.529 29.6522 155.811 29.7848C156.096 29.9207 156.469 29.9886 156.93 29.9886C157.546 29.9886 158.055 29.8395 158.456 29.5412C158.857 29.2429 159.058 28.7756 159.058 28.1392V26.5881H158.958C158.872 26.7273 158.749 26.8996 158.59 27.1051C158.434 27.3073 158.209 27.4879 157.914 27.647C157.622 27.8028 157.228 27.8807 156.731 27.8807C156.114 27.8807 155.561 27.7348 155.07 27.4432C154.583 27.1515 154.197 26.7273 153.912 26.1705C153.63 25.6136 153.489 24.9375 153.489 24.142C153.489 23.3598 153.627 22.6787 153.902 22.0987C154.177 21.5154 154.56 21.0646 155.05 20.7464C155.541 20.425 156.108 20.2642 156.751 20.2642C157.248 20.2642 157.642 20.3471 157.934 20.5128C158.229 20.6752 158.454 20.8608 158.61 21.0696C158.769 21.2751 158.892 21.4441 158.978 21.5767H159.097V20.3636H160.231V28.2188C160.231 28.875 160.082 29.4086 159.783 29.8196C159.488 30.2339 159.091 30.5372 158.59 30.7294C158.093 30.925 157.54 31.0227 156.93 31.0227ZM156.89 26.8267C157.361 26.8267 157.758 26.719 158.083 26.5036C158.408 26.2881 158.655 25.9782 158.824 25.5739C158.993 25.1695 159.077 24.6856 159.077 24.1222C159.077 23.572 158.995 23.0864 158.829 22.6655C158.663 22.2446 158.418 21.9148 158.093 21.6761C157.768 21.4375 157.367 21.3182 156.89 21.3182C156.393 21.3182 155.978 21.4441 155.647 21.696C155.319 21.9479 155.072 22.286 154.906 22.7102C154.744 23.1345 154.663 23.6051 154.663 24.1222C154.663 24.6525 154.746 25.1214 154.911 25.5291C155.08 25.9335 155.329 26.2517 155.657 26.4837C155.988 26.7124 156.399 26.8267 156.89 26.8267ZM164.626 28.179C164.142 28.179 163.703 28.0878 163.308 27.9055C162.914 27.7199 162.601 27.4531 162.369 27.1051C162.137 26.7538 162.021 26.3295 162.021 25.8324C162.021 25.3949 162.107 25.0402 162.279 24.7685C162.451 24.4934 162.682 24.2779 162.97 24.1222C163.259 23.9664 163.577 23.8504 163.925 23.7741C164.276 23.6946 164.629 23.6316 164.984 23.5852C165.448 23.5256 165.824 23.4808 166.112 23.451C166.404 23.4179 166.616 23.3632 166.749 23.2869C166.884 23.2107 166.952 23.0781 166.952 22.8892V22.8494C166.952 22.3589 166.818 21.9777 166.55 21.706C166.285 21.4342 165.882 21.2983 165.342 21.2983C164.781 21.2983 164.342 21.4209 164.024 21.6662C163.706 21.9115 163.482 22.1733 163.353 22.4517L162.239 22.054C162.438 21.59 162.703 21.2287 163.035 20.9702C163.37 20.7083 163.734 20.526 164.129 20.4233C164.526 20.3172 164.917 20.2642 165.302 20.2642C165.547 20.2642 165.829 20.294 166.147 20.3537C166.469 20.41 166.778 20.5277 167.077 20.7067C167.378 20.8857 167.629 21.1558 167.827 21.517C168.026 21.8783 168.126 22.3622 168.126 22.9688V28H166.952V26.9659H166.893C166.813 27.1316 166.681 27.3089 166.495 27.4979C166.309 27.6868 166.063 27.8475 165.754 27.9801C165.446 28.1127 165.07 28.179 164.626 28.179ZM164.805 27.125C165.269 27.125 165.66 27.0339 165.978 26.8516C166.299 26.6693 166.541 26.4339 166.704 26.1456C166.87 25.8572 166.952 25.554 166.952 25.2358V24.1619C166.903 24.2216 166.793 24.2763 166.624 24.326C166.459 24.3724 166.266 24.4138 166.048 24.4503C165.832 24.4834 165.622 24.5133 165.416 24.5398C165.214 24.563 165.05 24.5829 164.924 24.5994C164.619 24.6392 164.334 24.7038 164.069 24.7933C163.807 24.8795 163.595 25.0104 163.433 25.1861C163.273 25.3584 163.194 25.5937 163.194 25.892C163.194 26.2997 163.345 26.608 163.646 26.8168C163.951 27.0223 164.337 27.125 164.805 27.125ZM171.122 28.0795C170.877 28.0795 170.667 27.9917 170.491 27.8161C170.315 27.6404 170.227 27.4299 170.227 27.1847C170.227 26.9394 170.315 26.7289 170.491 26.5533C170.667 26.3776 170.877 26.2898 171.122 26.2898C171.368 26.2898 171.578 26.3776 171.754 26.5533C171.929 26.7289 172.017 26.9394 172.017 27.1847C172.017 27.3471 171.976 27.4962 171.893 27.6321C171.813 27.768 171.706 27.8774 171.57 27.9602C171.437 28.0398 171.288 28.0795 171.122 28.0795ZM171.122 22.4119C170.877 22.4119 170.667 22.3241 170.491 22.1484C170.315 21.9728 170.227 21.7623 170.227 21.517C170.227 21.2718 170.315 21.0613 170.491 20.8857C170.667 20.71 170.877 20.6222 171.122 20.6222C171.368 20.6222 171.578 20.71 171.754 20.8857C171.929 21.0613 172.017 21.2718 172.017 21.517C172.017 21.6795 171.976 21.8286 171.893 21.9645C171.813 22.1004 171.706 22.2098 171.57 22.2926C171.437 22.3722 171.288 22.4119 171.122 22.4119ZM178.219 28V17.8182H184.364V18.9119H179.452V22.3523H184.046V23.446H179.452V26.9062H184.444V28H178.219ZM187.601 23.4062V28H186.427V20.3636H187.561V21.5568H187.66C187.839 21.169 188.111 20.8575 188.476 20.6222C188.84 20.3835 189.311 20.2642 189.888 20.2642C190.405 20.2642 190.857 20.3703 191.245 20.5824C191.633 20.7912 191.934 21.1094 192.15 21.5369C192.365 21.9612 192.473 22.4981 192.473 23.1477V28H191.3V23.2273C191.3 22.6274 191.144 22.16 190.832 21.8253C190.521 21.4872 190.093 21.3182 189.55 21.3182C189.175 21.3182 188.84 21.3994 188.545 21.5618C188.254 21.7242 188.023 21.9612 187.854 22.2727C187.685 22.5843 187.601 22.9621 187.601 23.4062ZM197.938 20.3636V21.358H193.98V20.3636H197.938ZM195.134 18.5341H196.307V25.8125C196.307 26.1439 196.355 26.3925 196.451 26.5582C196.551 26.7206 196.677 26.83 196.829 26.8864C196.985 26.9394 197.149 26.9659 197.321 26.9659C197.451 26.9659 197.557 26.9593 197.64 26.946C197.722 26.9295 197.789 26.9162 197.838 26.9062L198.077 27.9602C197.998 27.9901 197.886 28.0199 197.744 28.0497C197.601 28.0829 197.421 28.0994 197.202 28.0994C196.871 28.0994 196.546 28.0282 196.228 27.8857C195.913 27.7431 195.651 27.526 195.442 27.2344C195.237 26.9427 195.134 26.5748 195.134 26.1307V18.5341ZM199.703 28V20.3636H200.836V21.517H200.916C201.055 21.1392 201.307 20.8326 201.672 20.5973C202.036 20.362 202.447 20.2443 202.904 20.2443C202.991 20.2443 203.098 20.246 203.228 20.2493C203.357 20.2526 203.455 20.2576 203.521 20.2642V21.4574C203.481 21.4474 203.39 21.4325 203.248 21.4126C203.108 21.3894 202.961 21.3778 202.805 21.3778C202.434 21.3778 202.102 21.4557 201.811 21.6115C201.522 21.764 201.294 21.9761 201.125 22.2479C200.959 22.5163 200.876 22.8229 200.876 23.1676V28H199.703ZM207.881 28.1591C207.145 28.1591 206.511 27.9967 205.977 27.6719C205.447 27.3438 205.037 26.8864 204.749 26.2997C204.464 25.7098 204.321 25.0237 204.321 24.2415C204.321 23.4593 204.464 22.7699 204.749 22.1733C205.037 21.5734 205.438 21.1061 205.952 20.7713C206.469 20.4332 207.072 20.2642 207.762 20.2642C208.159 20.2642 208.552 20.3305 208.94 20.4631C209.328 20.5956 209.681 20.8111 209.999 21.1094C210.317 21.4044 210.571 21.7955 210.76 22.2827C210.949 22.7699 211.043 23.3698 211.043 24.0824V24.5795H205.157V23.5653H209.85C209.85 23.1345 209.764 22.75 209.591 22.4119C209.422 22.0739 209.18 21.8071 208.865 21.6115C208.554 21.416 208.186 21.3182 207.762 21.3182C207.294 21.3182 206.89 21.4342 206.549 21.6662C206.211 21.8949 205.95 22.1932 205.768 22.5611C205.586 22.929 205.495 23.3234 205.495 23.7443V24.4205C205.495 24.9972 205.594 25.486 205.793 25.8871C205.995 26.2848 206.275 26.5881 206.633 26.7969C206.991 27.0024 207.407 27.1051 207.881 27.1051C208.189 27.1051 208.468 27.062 208.716 26.9759C208.968 26.8864 209.185 26.7538 209.368 26.5781C209.55 26.3991 209.691 26.1771 209.79 25.9119L210.924 26.2301C210.804 26.6146 210.604 26.9527 210.322 27.2443C210.04 27.5327 209.692 27.758 209.278 27.9205C208.864 28.0795 208.398 28.1591 207.881 28.1591ZM215.91 31.0227C215.343 31.0227 214.856 30.9498 214.449 30.804C214.041 30.6615 213.701 30.4725 213.429 30.2372C213.161 30.0052 212.947 29.7566 212.788 29.4915L213.723 28.8352C213.829 28.9744 213.963 29.1335 214.125 29.3125C214.288 29.4948 214.51 29.6522 214.792 29.7848C215.077 29.9207 215.449 29.9886 215.91 29.9886C216.527 29.9886 217.035 29.8395 217.436 29.5412C217.837 29.2429 218.038 28.7756 218.038 28.1392V26.5881H217.939C217.852 26.7273 217.73 26.8996 217.571 27.1051C217.415 27.3073 217.19 27.4879 216.895 27.647C216.603 27.8028 216.208 27.8807 215.711 27.8807C215.095 27.8807 214.541 27.7348 214.051 27.4432C213.564 27.1515 213.177 26.7273 212.892 26.1705C212.611 25.6136 212.47 24.9375 212.47 24.142C212.47 23.3598 212.607 22.6787 212.882 22.0987C213.158 21.5154 213.54 21.0646 214.031 20.7464C214.521 20.425 215.088 20.2642 215.731 20.2642C216.228 20.2642 216.623 20.3471 216.914 20.5128C217.209 20.6752 217.435 20.8608 217.591 21.0696C217.75 21.2751 217.872 21.4441 217.958 21.5767H218.078V20.3636H219.211V28.2188C219.211 28.875 219.062 29.4086 218.764 29.8196C218.469 30.2339 218.071 30.5372 217.571 30.7294C217.074 30.925 216.52 31.0227 215.91 31.0227ZM215.87 26.8267C216.341 26.8267 216.739 26.719 217.064 26.5036C217.388 26.2881 217.635 25.9782 217.804 25.5739C217.973 25.1695 218.058 24.6856 218.058 24.1222C218.058 23.572 217.975 23.0864 217.809 22.6655C217.644 22.2446 217.398 21.9148 217.074 21.6761C216.749 21.4375 216.348 21.3182 215.87 21.3182C215.373 21.3182 214.959 21.4441 214.627 21.696C214.299 21.9479 214.052 22.286 213.887 22.7102C213.724 23.1345 213.643 23.6051 213.643 24.1222C213.643 24.6525 213.726 25.1214 213.892 25.5291C214.061 25.9335 214.309 26.2517 214.637 26.4837C214.969 26.7124 215.38 26.8267 215.87 26.8267ZM223.606 28.179C223.122 28.179 222.683 28.0878 222.289 27.9055C221.894 27.7199 221.581 27.4531 221.349 27.1051C221.117 26.7538 221.001 26.3295 221.001 25.8324C221.001 25.3949 221.087 25.0402 221.26 24.7685C221.432 24.4934 221.662 24.2779 221.951 24.1222C222.239 23.9664 222.557 23.8504 222.905 23.7741C223.257 23.6946 223.609 23.6316 223.964 23.5852C224.428 23.5256 224.804 23.4808 225.093 23.451C225.384 23.4179 225.596 23.3632 225.729 23.2869C225.865 23.2107 225.933 23.0781 225.933 22.8892V22.8494C225.933 22.3589 225.799 21.9777 225.53 21.706C225.265 21.4342 224.862 21.2983 224.322 21.2983C223.762 21.2983 223.323 21.4209 223.005 21.6662C222.686 21.9115 222.463 22.1733 222.333 22.4517L221.22 22.054C221.419 21.59 221.684 21.2287 222.015 20.9702C222.35 20.7083 222.715 20.526 223.109 20.4233C223.507 20.3172 223.898 20.2642 224.282 20.2642C224.528 20.2642 224.809 20.294 225.127 20.3537C225.449 20.41 225.759 20.5277 226.057 20.7067C226.359 20.8857 226.609 21.1558 226.808 21.517C227.007 21.8783 227.106 22.3622 227.106 22.9688V28H225.933V26.9659H225.873C225.794 27.1316 225.661 27.3089 225.475 27.4979C225.29 27.6868 225.043 27.8475 224.735 27.9801C224.426 28.1127 224.05 28.179 223.606 28.179ZM223.785 27.125C224.249 27.125 224.64 27.0339 224.958 26.8516C225.28 26.6693 225.522 26.4339 225.684 26.1456C225.85 25.8572 225.933 25.554 225.933 25.2358V24.1619C225.883 24.2216 225.774 24.2763 225.605 24.326C225.439 24.3724 225.247 24.4138 225.028 24.4503C224.813 24.4834 224.602 24.5133 224.397 24.5398C224.194 24.563 224.03 24.5829 223.904 24.5994C223.6 24.6392 223.315 24.7038 223.049 24.7933C222.788 24.8795 222.575 25.0104 222.413 25.1861C222.254 25.3584 222.174 25.5937 222.174 25.892C222.174 26.2997 222.325 26.608 222.627 26.8168C222.932 27.0223 223.318 27.125 223.785 27.125ZM233.185 28V20.3636H234.358V28H233.185ZM233.782 19.0909C233.553 19.0909 233.356 19.013 233.19 18.8572C233.028 18.7015 232.947 18.5142 232.947 18.2955C232.947 18.0767 233.028 17.8894 233.19 17.7337C233.356 17.5779 233.553 17.5 233.782 17.5C234.01 17.5 234.206 17.5779 234.368 17.7337C234.534 17.8894 234.617 18.0767 234.617 18.2955C234.617 18.5142 234.534 18.7015 234.368 18.8572C234.206 19.013 234.01 19.0909 233.782 19.0909ZM237.681 23.4062V28H236.507V20.3636H237.641V21.5568H237.74C237.919 21.169 238.191 20.8575 238.556 20.6222C238.92 20.3835 239.391 20.2642 239.968 20.2642C240.485 20.2642 240.937 20.3703 241.325 20.5824C241.713 20.7912 242.014 21.1094 242.23 21.5369C242.445 21.9612 242.553 22.4981 242.553 23.1477V28H241.38V23.2273C241.38 22.6274 241.224 22.16 240.912 21.8253C240.601 21.4872 240.173 21.3182 239.63 21.3182C239.255 21.3182 238.92 21.3994 238.625 21.5618C238.334 21.7242 238.103 21.9612 237.934 22.2727C237.765 22.5843 237.681 22.9621 237.681 23.4062ZM244.697 28V20.3636H245.83V21.5568H245.93C246.089 21.1491 246.346 20.8326 246.7 20.6072C247.055 20.3786 247.481 20.2642 247.978 20.2642C248.482 20.2642 248.901 20.3786 249.236 20.6072C249.574 20.8326 249.838 21.1491 250.026 21.5568H250.106C250.302 21.1624 250.595 20.8492 250.986 20.6172C251.377 20.3819 251.846 20.2642 252.393 20.2642C253.076 20.2642 253.634 20.478 254.068 20.9055C254.503 21.3298 254.72 21.991 254.72 22.8892V28H253.546V22.8892C253.546 22.3258 253.392 21.9231 253.084 21.6811C252.776 21.4392 252.413 21.3182 251.995 21.3182C251.458 21.3182 251.042 21.4806 250.747 21.8054C250.452 22.1269 250.305 22.5346 250.305 23.0284V28H249.112V22.7699C249.112 22.3357 248.971 21.986 248.689 21.7209C248.407 21.4524 248.044 21.3182 247.6 21.3182C247.295 21.3182 247.01 21.3994 246.745 21.5618C246.483 21.7242 246.271 21.9496 246.109 22.2379C245.95 22.523 245.87 22.8527 245.87 23.2273V28H244.697ZM260.067 28.1591C259.331 28.1591 258.696 27.9967 258.162 27.6719C257.632 27.3438 257.223 26.8864 256.934 26.2997C256.649 25.7098 256.507 25.0237 256.507 24.2415C256.507 23.4593 256.649 22.7699 256.934 22.1733C257.223 21.5734 257.624 21.1061 258.138 20.7713C258.655 20.4332 259.258 20.2642 259.947 20.2642C260.345 20.2642 260.738 20.3305 261.126 20.4631C261.513 20.5956 261.866 20.8111 262.184 21.1094C262.503 21.4044 262.756 21.7955 262.945 22.2827C263.134 22.7699 263.229 23.3698 263.229 24.0824V24.5795H257.342V23.5653H262.035C262.035 23.1345 261.949 22.75 261.777 22.4119C261.608 22.0739 261.366 21.8071 261.051 21.6115C260.739 21.416 260.372 21.3182 259.947 21.3182C259.48 21.3182 259.076 21.4342 258.734 21.6662C258.396 21.8949 258.136 22.1932 257.954 22.5611C257.771 22.929 257.68 23.3234 257.68 23.7443V24.4205C257.68 24.9972 257.78 25.486 257.979 25.8871C258.181 26.2848 258.461 26.5881 258.819 26.7969C259.177 27.0024 259.593 27.1051 260.067 27.1051C260.375 27.1051 260.653 27.062 260.902 26.9759C261.154 26.8864 261.371 26.7538 261.553 26.5781C261.735 26.3991 261.876 26.1771 261.976 25.9119L263.109 26.2301C262.99 26.6146 262.789 26.9527 262.508 27.2443C262.226 27.5327 261.878 27.758 261.464 27.9205C261.049 28.0795 260.584 28.1591 260.067 28.1591ZM267.897 28.1591C267.26 28.1591 266.699 27.9983 266.211 27.6768C265.724 27.352 265.343 26.8946 265.068 26.3047C264.793 25.7114 264.655 25.0104 264.655 24.2017C264.655 23.3996 264.793 22.7036 265.068 22.1136C265.343 21.5237 265.726 21.0679 266.216 20.7464C266.707 20.425 267.274 20.2642 267.917 20.2642C268.414 20.2642 268.807 20.3471 269.095 20.5128C269.387 20.6752 269.609 20.8608 269.761 21.0696C269.917 21.2751 270.038 21.4441 270.124 21.5767H270.224V17.8182H271.397V28H270.263V26.8267H270.124C270.038 26.9659 269.915 27.1416 269.756 27.3537C269.597 27.5625 269.37 27.7498 269.075 27.9155C268.78 28.0779 268.387 28.1591 267.897 28.1591ZM268.056 27.1051C268.527 27.1051 268.924 26.9825 269.249 26.7372C269.574 26.4886 269.821 26.1456 269.99 25.7081C270.159 25.2673 270.243 24.7585 270.243 24.1818C270.243 23.6117 270.161 23.1129 269.995 22.6854C269.829 22.2545 269.584 21.9197 269.259 21.6811C268.934 21.4392 268.533 21.3182 268.056 21.3182C267.559 21.3182 267.144 21.4458 266.813 21.701C266.485 21.9529 266.238 22.2959 266.072 22.7301C265.91 23.161 265.829 23.6449 265.829 24.1818C265.829 24.7254 265.912 25.2192 266.077 25.6634C266.246 26.1042 266.495 26.4555 266.823 26.7173C267.154 26.9759 267.565 27.1051 268.056 27.1051ZM273.709 28V20.3636H274.882V28H273.709ZM274.305 19.0909C274.077 19.0909 273.879 19.013 273.714 18.8572C273.551 18.7015 273.47 18.5142 273.47 18.2955C273.47 18.0767 273.551 17.8894 273.714 17.7337C273.879 17.5779 274.077 17.5 274.305 17.5C274.534 17.5 274.729 17.5779 274.892 17.7337C275.058 17.8894 275.14 18.0767 275.14 18.2955C275.14 18.5142 275.058 18.7015 274.892 18.8572C274.729 19.013 274.534 19.0909 274.305 19.0909ZM279.278 28.179C278.794 28.179 278.355 28.0878 277.961 27.9055C277.566 27.7199 277.253 27.4531 277.021 27.1051C276.789 26.7538 276.673 26.3295 276.673 25.8324C276.673 25.3949 276.759 25.0402 276.931 24.7685C277.104 24.4934 277.334 24.2779 277.623 24.1222C277.911 23.9664 278.229 23.8504 278.577 23.7741C278.928 23.6946 279.281 23.6316 279.636 23.5852C280.1 23.5256 280.476 23.4808 280.765 23.451C281.056 23.4179 281.268 23.3632 281.401 23.2869C281.537 23.2107 281.605 23.0781 281.605 22.8892V22.8494C281.605 22.3589 281.471 21.9777 281.202 21.706C280.937 21.4342 280.534 21.2983 279.994 21.2983C279.434 21.2983 278.995 21.4209 278.676 21.6662C278.358 21.9115 278.135 22.1733 278.005 22.4517L276.892 22.054C277.091 21.59 277.356 21.2287 277.687 20.9702C278.022 20.7083 278.386 20.526 278.781 20.4233C279.179 20.3172 279.57 20.2642 279.954 20.2642C280.199 20.2642 280.481 20.294 280.799 20.3537C281.121 20.41 281.431 20.5277 281.729 20.7067C282.031 20.8857 282.281 21.1558 282.48 21.517C282.679 21.8783 282.778 22.3622 282.778 22.9688V28H281.605V26.9659H281.545C281.466 27.1316 281.333 27.3089 281.147 27.4979C280.962 27.6868 280.715 27.8475 280.407 27.9801C280.098 28.1127 279.722 28.179 279.278 28.179ZM279.457 27.125C279.921 27.125 280.312 27.0339 280.63 26.8516C280.952 26.6693 281.194 26.4339 281.356 26.1456C281.522 25.8572 281.605 25.554 281.605 25.2358V24.1619C281.555 24.2216 281.446 24.2763 281.277 24.326C281.111 24.3724 280.919 24.4138 280.7 24.4503C280.484 24.4834 280.274 24.5133 280.069 24.5398C279.866 24.563 279.702 24.5829 279.576 24.5994C279.271 24.6392 278.986 24.7038 278.721 24.7933C278.459 24.8795 278.247 25.0104 278.085 25.1861C277.926 25.3584 277.846 25.5937 277.846 25.892C277.846 26.2997 277.997 26.608 278.299 26.8168C278.604 27.0223 278.99 27.125 279.457 27.125ZM288.241 20.3636V21.358H284.283V20.3636H288.241ZM285.437 18.5341H286.61V25.8125C286.61 26.1439 286.658 26.3925 286.754 26.5582C286.854 26.7206 286.979 26.83 287.132 26.8864C287.288 26.9394 287.452 26.9659 287.624 26.9659C287.753 26.9659 287.859 26.9593 287.942 26.946C288.025 26.9295 288.091 26.9162 288.141 26.9062L288.38 27.9602C288.3 27.9901 288.189 28.0199 288.047 28.0497C287.904 28.0829 287.724 28.0994 287.505 28.0994C287.173 28.0994 286.849 28.0282 286.53 27.8857C286.215 27.7431 285.954 27.526 285.745 27.2344C285.539 26.9427 285.437 26.5748 285.437 26.1307V18.5341ZM292.253 28.179C291.769 28.179 291.33 28.0878 290.935 27.9055C290.541 27.7199 290.228 27.4531 289.996 27.1051C289.764 26.7538 289.648 26.3295 289.648 25.8324C289.648 25.3949 289.734 25.0402 289.906 24.7685C290.078 24.4934 290.309 24.2779 290.597 24.1222C290.885 23.9664 291.204 23.8504 291.552 23.7741C291.903 23.6946 292.256 23.6316 292.611 23.5852C293.075 23.5256 293.451 23.4808 293.739 23.451C294.031 23.4179 294.243 23.3632 294.376 23.2869C294.511 23.2107 294.579 23.0781 294.579 22.8892V22.8494C294.579 22.3589 294.445 21.9777 294.177 21.706C293.912 21.4342 293.509 21.2983 292.969 21.2983C292.408 21.2983 291.969 21.4209 291.651 21.6662C291.333 21.9115 291.109 22.1733 290.98 22.4517L289.866 22.054C290.065 21.59 290.33 21.2287 290.662 20.9702C290.997 20.7083 291.361 20.526 291.756 20.4233C292.153 20.3172 292.544 20.2642 292.929 20.2642C293.174 20.2642 293.456 20.294 293.774 20.3537C294.095 20.41 294.405 20.5277 294.704 20.7067C295.005 20.8857 295.256 21.1558 295.454 21.517C295.653 21.8783 295.753 22.3622 295.753 22.9688V28H294.579V26.9659H294.52C294.44 27.1316 294.308 27.3089 294.122 27.4979C293.936 27.6868 293.689 27.8475 293.381 27.9801C293.073 28.1127 292.697 28.179 292.253 28.179ZM292.432 27.125C292.896 27.125 293.287 27.0339 293.605 26.8516C293.926 26.6693 294.168 26.4339 294.331 26.1456C294.497 25.8572 294.579 25.554 294.579 25.2358V24.1619C294.53 24.2216 294.42 24.2763 294.251 24.326C294.086 24.3724 293.893 24.4138 293.675 24.4503C293.459 24.4834 293.249 24.5133 293.043 24.5398C292.841 24.563 292.677 24.5829 292.551 24.5994C292.246 24.6392 291.961 24.7038 291.696 24.7933C291.434 24.8795 291.222 25.0104 291.059 25.1861C290.9 25.3584 290.821 25.5937 290.821 25.892C290.821 26.2997 290.972 26.608 291.273 26.8168C291.578 27.0223 291.964 27.125 292.432 27.125Z" fill="#272727"/>
</svg>
