<svg width="18" height="12" viewBox="0 0 18 12" fill="none" xmlns="http://www.w3.org/2000/svg">
<path d="M0.567383 5.95833C0.567383 6.15172 0.682172 6.33719 0.886498 6.47393C1.09082 6.61068 1.36795 6.6875 1.65691 6.6875H8.01248C8.06064 6.6875 8.10683 6.7003 8.14088 6.72309C8.17494 6.74589 8.19407 6.7768 8.19407 6.80903V11.0625C8.19407 11.2559 8.30886 11.4414 8.51318 11.5781C8.71751 11.7148 8.99463 11.7917 9.2836 11.7917C9.57256 11.7917 9.84968 11.7148 10.054 11.5781C10.2583 11.4414 10.3731 11.2559 10.3731 11.0625V6.80903C10.3731 6.7768 10.3923 6.74589 10.4263 6.72309C10.4604 6.7003 10.5065 6.6875 10.5547 6.6875H16.9103C17.1992 6.6875 17.4764 6.61068 17.6807 6.47393C17.885 6.33719 17.9998 6.15172 17.9998 5.95833C17.9998 5.76495 17.885 5.57948 17.6807 5.44273C17.4764 5.30599 17.1992 5.22917 16.9103 5.22917H10.5547C10.5065 5.22917 10.4604 5.21636 10.4263 5.19357C10.3923 5.17078 10.3731 5.13987 10.3731 5.10764V0.854167C10.3731 0.66078 10.2583 0.475313 10.054 0.338568C9.84968 0.201823 9.57256 0.125 9.2836 0.125C8.99463 0.125 8.71751 0.201823 8.51318 0.338568C8.30886 0.475313 8.19407 0.66078 8.19407 0.854167V5.10764C8.19407 5.13987 8.17494 5.17078 8.14088 5.19357C8.10683 5.21636 8.06064 5.22917 8.01248 5.22917H1.65691C1.36795 5.22917 1.09082 5.30599 0.886498 5.44273C0.682172 5.57948 0.567383 5.76495 0.567383 5.95833H0.567383Z" fill="#52B9A5"/>
</svg>
