<svg width="50" height="50" viewBox="0 0 50 50" fill="none" xmlns="http://www.w3.org/2000/svg">
<rect width="50" height="50" rx="25" fill="#005B56"/>
<path d="M16 25C16 25.2984 16.1185 25.5845 16.3295 25.7955C16.5405 26.0065 16.8266 26.125 17.125 26.125H23.6875C23.7372 26.125 23.7849 26.1448 23.8201 26.1799C23.8552 26.2151 23.875 26.2628 23.875 26.3125V32.875C23.875 33.1734 23.9935 33.4595 24.2045 33.6705C24.4155 33.8815 24.7016 34 25 34C25.2984 34 25.5845 33.8815 25.7955 33.6705C26.0065 33.4595 26.125 33.1734 26.125 32.875V26.3125C26.125 26.2628 26.1448 26.2151 26.1799 26.1799C26.2151 26.1448 26.2628 26.125 26.3125 26.125H32.875C33.1734 26.125 33.4595 26.0065 33.6705 25.7955C33.8815 25.5845 34 25.2984 34 25C34 24.7016 33.8815 24.4155 33.6705 24.2045C33.4595 23.9935 33.1734 23.875 32.875 23.875H26.3125C26.2628 23.875 26.2151 23.8552 26.1799 23.8201C26.1448 23.7849 26.125 23.7372 26.125 23.6875V17.125C26.125 16.8266 26.0065 16.5405 25.7955 16.3295C25.5845 16.1185 25.2984 16 25 16C24.7016 16 24.4155 16.1185 24.2045 16.3295C23.9935 16.5405 23.875 16.8266 23.875 17.125V23.6875C23.875 23.7372 23.8552 23.7849 23.8201 23.8201C23.7849 23.8552 23.7372 23.875 23.6875 23.875H17.125C16.8266 23.875 16.5405 23.9935 16.3295 24.2045C16.1185 24.4155 16 24.7016 16 25V25Z" fill="white"/>
</svg>
