<svg width="136" height="47" viewBox="0 0 136 47" fill="none" xmlns="http://www.w3.org/2000/svg">
<g clip-path="url(#clip0_1_5518)">
<g clip-path="url(#clip1_1_5518)">
<path d="M124.168 0.870277H11.0859C10.6737 0.870277 10.2664 0.870277 9.8553 0.872537C9.51117 0.874797 9.16978 0.881377 8.82233 0.886917C8.06753 0.895867 7.31451 0.962767 6.5698 1.08703C5.82614 1.214 5.10577 1.45338 4.43306 1.79706C3.76118 2.14365 3.14726 2.59402 2.61358 3.13181C2.0771 3.66809 1.62989 4.28796 1.28918 4.96758C0.947517 5.64585 0.710608 6.37267 0.58663 7.12296C0.46148 7.87229 0.394131 8.63027 0.385197 9.39008C0.374765 9.73729 0.373663 10.0856 0.368164 10.4329V36.6082C0.373663 36.9598 0.374765 37.3004 0.385197 37.6522C0.394131 38.412 0.46148 39.1699 0.58663 39.9192C0.710261 40.6699 0.947189 41.3972 1.28918 42.0757C1.62975 42.7531 2.07701 43.3705 2.61359 43.9038C3.14525 44.444 3.75956 44.8946 4.43307 45.2386C5.10577 45.5832 5.82606 45.824 6.56981 45.9529C7.31464 46.0762 8.06759 46.1431 8.82234 46.1531C9.16978 46.1608 9.51117 46.1652 9.85531 46.1652C10.2664 46.1675 10.6737 46.1675 11.0859 46.1675H124.168C124.572 46.1675 124.983 46.1675 125.387 46.1653C125.729 46.1653 126.08 46.1608 126.423 46.1531C127.176 46.1437 127.928 46.0767 128.671 45.9529C129.417 45.8231 130.14 45.5824 130.816 45.2386C131.489 44.8944 132.103 44.4438 132.634 43.9038C133.169 43.3684 133.617 42.7515 133.962 42.0757C134.301 41.3967 134.536 40.6695 134.658 39.9192C134.783 39.1698 134.853 38.412 134.867 37.6522C134.871 37.3005 134.871 36.9598 134.871 36.6082C134.88 36.1968 134.88 35.7876 134.88 35.3696V11.6693C134.88 11.2546 134.88 10.8432 134.871 10.4329C134.871 10.0856 134.871 9.73729 134.867 9.39004C134.853 8.63016 134.783 7.87235 134.658 7.12291C134.536 6.37306 134.301 5.64629 133.962 4.96753C133.268 3.6053 132.168 2.49645 130.816 1.79695C130.14 1.4541 129.417 1.21479 128.671 1.08692C127.928 0.962107 127.176 0.895187 126.423 0.886747C126.08 0.881217 125.729 0.874587 125.387 0.872377C124.983 0.870117 124.572 0.870117 124.168 0.870117L124.168 0.870277Z" fill="#A6A6A6"/>
<path d="M9.86753 45.1766C9.52508 45.1766 9.19091 45.1722 8.85115 45.1645C8.14731 45.1553 7.44512 45.0935 6.75033 44.9798C6.10248 44.8674 5.47488 44.6583 4.88824 44.3593C4.30699 44.0629 3.77683 43.6742 3.31808 43.2081C2.8527 42.7475 2.46525 42.2133 2.17108 41.6267C1.87367 41.0362 1.66784 40.4033 1.56077 39.75C1.44514 39.048 1.38259 38.3382 1.37363 37.6267C1.36651 37.3879 1.35718 36.5927 1.35718 36.5927V10.4329C1.35718 10.4329 1.36711 9.64991 1.37369 9.41987C1.38227 8.70948 1.44446 8.00077 1.55974 7.29988C1.66701 6.64479 1.873 6.01006 2.17056 5.41766C2.46365 4.83142 2.84895 4.29682 3.31153 3.83458C3.7736 3.36795 4.30544 2.97724 4.8877 2.6767C5.47299 2.37874 6.09941 2.1711 6.74595 2.06073C7.44302 1.94586 8.14765 1.88376 8.85393 1.87494L9.86809 1.86111H125.375L126.401 1.87549C127.101 1.88387 127.799 1.94542 128.49 2.05961C129.143 2.17137 129.776 2.38046 130.368 2.68001C131.534 3.28569 132.484 4.24393 133.082 5.42041C133.375 6.00872 133.578 6.63827 133.684 7.2877C133.801 7.99434 133.866 8.70862 133.879 9.42483C133.883 9.74553 133.883 10.09 133.883 10.4329C133.891 10.8575 133.891 11.2617 133.891 11.6692V35.3695C133.891 35.7809 133.891 36.1824 133.883 36.5871C133.883 36.9554 133.883 37.2927 133.878 37.6399C133.865 38.3434 133.801 39.0449 133.686 39.7389C133.581 40.3969 133.376 41.0347 133.079 41.63C132.783 42.2103 132.398 42.7399 131.938 43.1992C131.478 43.6678 130.947 44.0588 130.365 44.3572C129.774 44.6584 129.142 44.8683 128.49 44.9798C127.795 45.0941 127.093 45.1558 126.389 45.1645C126.06 45.1722 125.715 45.1766 125.381 45.1766L124.162 45.1789L9.86753 45.1766Z" fill="black"/>
<path d="M28.4171 23.8588C28.4418 21.9376 29.449 20.1631 31.0857 19.1568C30.0485 17.6755 28.3735 16.77 26.566 16.7134C24.6644 16.5138 22.8209 17.8513 21.8518 17.8513C20.864 17.8513 19.3721 16.7332 17.7654 16.7663C15.6516 16.8346 13.7286 18.0073 12.7002 19.8554C10.5101 23.6473 12.1437 29.22 14.2416 32.2851C15.2913 33.786 16.518 35.4625 18.1232 35.403C19.6939 35.3379 20.2806 34.4014 22.1766 34.4014C24.055 34.4014 24.6054 35.403 26.2432 35.3652C27.9287 35.3379 28.9906 33.8577 30.0034 32.3426C30.7576 31.2732 31.3379 30.0912 31.7229 28.8405C29.7211 27.9938 28.4194 26.0323 28.4171 23.8588L28.4171 23.8588Z" fill="white"/>
<path d="M25.3237 14.698C26.2427 13.5948 26.6955 12.1768 26.5858 10.7451C25.1818 10.8926 23.8849 11.5636 22.9535 12.6245C22.0337 13.6712 21.5678 15.0406 21.6583 16.431C23.0812 16.4457 24.4321 15.8069 25.3237 14.698V14.698Z" fill="white"/>
<path fill-rule="evenodd" clip-rule="evenodd" d="M47.2721 31.6047H41.9119L40.6246 35.4056H38.3542L43.4314 21.3431H45.7902L50.8674 35.4056H48.5582L47.2721 31.6047ZM42.467 29.8507H46.7159L44.6213 23.682H44.5627L42.467 29.8507Z" fill="white"/>
<path fill-rule="evenodd" clip-rule="evenodd" d="M61.8318 30.2792C61.8318 33.4652 60.1266 35.5122 57.5532 35.5122C56.223 35.5818 54.97 34.8851 54.3273 33.7184H54.2786V38.7967H52.1741V25.1523H54.2111V26.8576H54.2498C54.9212 25.6982 56.1755 25.0018 57.5144 25.045C60.1165 25.0451 61.8318 27.102 61.8318 30.2791L61.8318 30.2792ZM59.6687 30.2792C59.6687 28.2034 58.596 26.8387 56.9593 26.8387C55.3513 26.8387 54.2698 28.2321 54.2698 30.2792C54.2698 32.345 55.3513 33.7284 56.9593 33.7284C58.596 33.7284 59.6687 32.3737 59.6687 30.2792H59.6687Z" fill="white"/>
<path fill-rule="evenodd" clip-rule="evenodd" d="M73.117 30.2791C73.117 33.4652 71.4117 35.5122 68.8383 35.5122C67.5081 35.5818 66.2552 34.8851 65.6124 33.7184H65.5637V38.7967H63.4592V25.1523H65.4963V26.8575H65.535C66.2063 25.6982 67.4606 25.0018 68.7996 25.045C71.4018 25.045 73.117 27.102 73.117 30.2791L73.117 30.2791ZM70.9538 30.2791C70.9538 28.2034 69.8811 26.8387 68.2444 26.8387C66.6365 26.8387 65.5549 28.2321 65.5549 30.2791C65.5549 32.3449 66.6365 33.7284 68.2444 33.7284C69.8812 33.7284 70.9539 32.3737 70.9539 30.2791H70.9538Z" fill="white"/>
<path d="M80.5745 31.487C80.7304 32.8815 82.0851 33.7971 83.9363 33.7971C85.7102 33.7971 86.9864 32.8814 86.9864 31.624C86.9864 30.5325 86.2167 29.879 84.3942 29.4311L82.5717 28.992C79.9894 28.3683 78.7907 27.1607 78.7907 25.201C78.7907 22.7747 80.9051 21.1081 83.9076 21.1081C86.8791 21.1081 88.9162 22.7747 88.9847 25.201H86.8603C86.7331 23.7976 85.573 22.9505 83.8777 22.9505C82.1824 22.9505 81.0223 23.8076 81.0223 25.0551C81.0223 26.0493 81.7633 26.6343 83.5758 27.0821L85.1252 27.4625C88.0104 28.1449 89.2092 29.3039 89.2092 31.3608C89.2092 33.9917 87.1136 35.6395 83.7804 35.6395C80.6618 35.6395 78.5562 34.0304 78.4202 31.4869L80.5745 31.487Z" fill="white"/>
<path d="M93.7514 22.7261V25.1524H95.7011V26.819H93.7514V32.4712C93.7514 33.3493 94.1418 33.7585 94.9989 33.7585C95.2303 33.7544 95.4614 33.7382 95.6912 33.7098V35.3664C95.3058 35.4384 94.9142 35.471 94.5223 35.4637C92.4465 35.4637 91.637 34.6841 91.637 32.6957V26.8191H90.1462V25.1525H91.637V22.7261L93.7514 22.7261Z" fill="white"/>
<path fill-rule="evenodd" clip-rule="evenodd" d="M96.8301 30.2791C96.8301 27.0532 98.73 25.0261 101.693 25.0261C104.665 25.0261 106.556 27.0532 106.556 30.2791C106.556 33.5138 104.675 35.5321 101.693 35.5321C98.7111 35.5321 96.8301 33.5139 96.8301 30.2791ZM104.412 30.2791C104.412 28.0662 103.398 26.7602 101.693 26.7602C99.9874 26.7602 98.9744 28.0762 98.9744 30.2791C98.9744 32.5008 99.9874 33.7969 101.693 33.7969C103.398 33.7969 104.412 32.5008 104.412 30.2791H104.412Z" fill="white"/>
<path d="M108.292 25.1522H110.299V26.8973H110.348C110.628 25.7739 111.657 25.0007 112.814 25.0449C113.057 25.0441 113.299 25.0704 113.535 25.1234V27.0919C113.229 26.9984 112.91 26.9554 112.59 26.9648C111.971 26.9397 111.372 27.1862 110.951 27.6397C110.529 28.0933 110.327 28.7084 110.397 29.3236L110.397 35.4049H108.292L108.292 25.1522Z" fill="white"/>
<path fill-rule="evenodd" clip-rule="evenodd" d="M123.238 32.3936C122.955 34.2548 121.142 35.5321 118.823 35.5321C115.841 35.5321 113.989 33.5337 113.989 30.3278C113.989 27.1118 115.85 25.0261 118.735 25.0261C121.571 25.0261 123.355 26.9747 123.355 30.0834V30.8044H116.114V30.9316C116.046 31.6949 116.31 32.4504 116.837 33.006C117.365 33.5617 118.106 33.8638 118.872 33.8356C119.893 33.9313 120.856 33.3449 121.239 32.3936L123.238 32.3936ZM116.124 29.3336H121.249C121.288 28.6477 121.038 27.977 120.561 27.483C120.083 26.9891 119.421 26.7167 118.735 26.7314C118.042 26.7273 117.377 26.9999 116.887 27.4886C116.397 27.9772 116.122 28.6414 116.124 29.3336L116.124 29.3336Z" fill="white"/>
</g>
<path d="M39.4871 14.1384C39.4871 11.9471 40.6527 10.5935 42.5305 10.5935C43.9338 10.524 45.1558 11.5424 45.3405 12.9352H44.2955C44.1145 12.1136 43.3711 11.5395 42.5305 11.5722C41.3173 11.5722 40.5587 12.5603 40.5587 14.1384C40.5587 15.7121 41.3173 16.6997 42.5349 16.6997C43.3444 16.7602 44.083 16.2378 44.2955 15.4544H45.3405C45.1291 16.8144 43.9072 17.783 42.5349 17.6784C40.6572 17.6784 39.4871 16.3254 39.4871 14.1384H39.4871Z" fill="white"/>
<path fill-rule="evenodd" clip-rule="evenodd" d="M46.4885 14.9629C46.401 14.0489 46.8393 13.1644 47.6195 12.6802C48.3996 12.1961 49.3868 12.1961 50.167 12.6802C50.9471 13.1644 51.3854 14.0489 51.298 14.9629C51.3871 15.8779 50.9492 16.7642 50.1683 17.2493C49.3875 17.7345 48.399 17.7345 47.6181 17.2493C46.8372 16.7642 46.3994 15.8779 46.4885 14.9629L46.4885 14.9629ZM50.2628 14.9629C50.2628 13.8576 49.7663 13.2112 48.8949 13.2112C48.0201 13.2112 47.528 13.8576 47.528 14.9629C47.528 16.0771 48.0201 16.7185 48.8949 16.7185C49.7663 16.7185 50.2628 16.0727 50.2628 14.9629Z" fill="white"/>
<path d="M52.648 12.4156H53.6167V13.2257H53.6919C53.9534 12.6292 54.5645 12.2644 55.2136 12.3172C55.7162 12.2794 56.2087 12.4722 56.5521 12.8411C56.8954 13.2101 57.0524 13.7152 56.9786 14.2138V17.5148H55.9723V14.4665C55.9723 13.6471 55.6162 13.2396 54.8719 13.2396C54.531 13.2237 54.2002 13.3575 53.9661 13.6058C53.7321 13.8542 53.6182 14.1924 53.6543 14.5318L53.6543 17.5149H52.6479L52.648 12.4156Z" fill="white"/>
<path d="M60.3993 12.3171C61.5461 12.3171 62.2959 12.8507 62.3944 13.7498H61.4289C61.3361 13.3755 60.97 13.1366 60.3993 13.1366C59.8376 13.1366 59.4107 13.4031 59.4107 13.8012C59.4107 14.1059 59.6684 14.2978 60.2214 14.4244L61.0684 14.6207C62.0383 14.8457 62.4928 15.2627 62.4928 16.0119C62.4928 16.9718 61.5982 17.6132 60.3805 17.6132C59.1674 17.6132 58.3767 17.0653 58.2871 16.1618H59.2946C59.4732 16.6043 59.9315 16.8673 60.4038 16.7982C61.0308 16.7982 61.4765 16.5173 61.4765 16.1098C61.4765 15.8056 61.2376 15.6088 60.7267 15.4872L59.8375 15.2809C58.8677 15.0514 58.4187 14.6163 58.4187 13.8576C58.4186 12.9536 59.247 12.3171 60.3994 12.3171L60.3993 12.3171Z" fill="white"/>
<path fill-rule="evenodd" clip-rule="evenodd" d="M63.7629 11.5628L64.9385 9.95212H66.1185L64.8025 11.5628H63.7629ZM63.8669 12.4155H64.8688V17.5148H63.8669V12.4155Z" fill="white"/>
<path fill-rule="evenodd" clip-rule="evenodd" d="M66.4364 18.0254H67.466C67.5511 18.3953 67.9769 18.6342 68.6559 18.6342C69.4942 18.6342 69.9907 18.236 69.9907 17.562V16.5833H69.9155C69.5937 17.142 68.9857 17.4729 68.3418 17.4398C67.0402 17.4398 66.2351 16.4335 66.2351 14.9068C66.2351 13.352 67.049 12.3312 68.3518 12.3312C69.0116 12.3082 69.6292 12.655 69.9531 13.2303H70.0327V12.4158H70.997V17.557C70.997 18.7232 70.0836 19.4631 68.6415 19.4631C67.3676 19.4631 66.5436 18.8919 66.4364 18.0254L66.4364 18.0254ZM70.0095 14.9018C70.0095 13.886 69.4842 13.2352 68.6272 13.2352C67.7612 13.2352 67.2747 13.886 67.2747 14.9018C67.2747 15.9181 67.7613 16.5689 68.6272 16.5689C69.4898 16.5689 70.0095 15.9231 70.0095 14.9018H70.0095Z" fill="white"/>
<path d="M76.8996 17.5144H75.9297V16.7044H75.8501C75.5857 17.3073 74.9652 17.6732 74.3096 17.6129C73.8101 17.6483 73.3213 17.4558 72.9801 17.0893C72.6389 16.7227 72.4818 16.2214 72.5529 15.7257V12.4151H73.5609V15.4635C73.5609 16.2874 73.8927 16.6811 74.6326 16.6811C74.98 16.714 75.3237 16.5885 75.5681 16.3395C75.8126 16.0904 75.9316 15.7444 75.8921 15.3977L75.8922 12.4151H76.8996V17.5144Z" fill="white"/>
<path fill-rule="evenodd" clip-rule="evenodd" d="M82.8149 16.1381C82.5327 17.0999 81.6019 17.7214 80.6053 17.6133C79.9254 17.6313 79.2719 17.3494 78.8183 16.8426C78.3647 16.3357 78.1568 15.6551 78.2498 14.9813C78.1593 14.3056 78.3664 13.6239 78.8175 13.1128C79.2686 12.6017 79.9192 12.3114 80.6009 12.3172C82.0198 12.3172 82.8757 13.2866 82.8757 14.8878V15.239H79.2749V15.2954C79.243 15.6738 79.3723 16.0481 79.6308 16.3262C79.8894 16.6043 80.2532 16.7605 80.6329 16.7562C81.1253 16.8154 81.6046 16.5711 81.8461 16.138L82.8149 16.1381ZM79.2749 14.4947H81.8505C81.8762 14.1486 81.7545 13.8078 81.5154 13.5563C81.2764 13.3047 80.9423 13.1658 80.5953 13.1737C80.2437 13.1693 79.9052 13.3071 79.6566 13.5558C79.408 13.8045 79.2703 14.1431 79.2749 14.4948L79.2749 14.4947Z" fill="white"/>
<path d="M84.2742 10.4251H85.2805V17.515H84.2742V10.4251Z" fill="white"/>
<path fill-rule="evenodd" clip-rule="evenodd" d="M86.6794 14.9629C86.5919 14.0489 87.0302 13.1644 87.8104 12.6802C88.5905 12.1961 89.5777 12.1961 90.3579 12.6802C91.1381 13.1644 91.5763 14.0489 91.4889 14.9629C91.578 15.8779 91.1402 16.7642 90.3593 17.2494C89.5784 17.7346 88.5899 17.7346 87.809 17.2494C87.0281 16.7642 86.5903 15.8779 86.6794 14.9629H86.6794ZM90.4538 14.9629C90.4538 13.8576 89.9572 13.2112 89.0858 13.2112C88.211 13.2112 87.7189 13.8576 87.7189 14.9629C87.7189 16.0771 88.2111 16.7185 89.0858 16.7185C89.9572 16.7185 90.4538 16.0727 90.4538 14.9629Z" fill="white"/>
<path fill-rule="evenodd" clip-rule="evenodd" d="M99.9179 16.1381C99.6357 17.0999 98.7049 17.7214 97.7084 17.6133C97.0284 17.6313 96.3749 17.3494 95.9213 16.8426C95.4677 16.3357 95.2598 15.6551 95.3528 14.9813C95.2623 14.3056 95.4694 13.6239 95.9205 13.1128C96.3716 12.6017 97.0222 12.3114 97.7039 12.3172C99.1228 12.3172 99.9788 13.2866 99.9788 14.8878V15.239H96.3781V15.2954C96.3462 15.6738 96.4754 16.0481 96.734 16.3262C96.9925 16.6043 97.3564 16.7605 97.7361 16.7562C98.2285 16.8153 98.7077 16.5711 98.9493 16.1381L99.9179 16.1381ZM96.378 14.4947H98.9537C98.9793 14.1486 98.8576 13.8078 98.6186 13.5563C98.3796 13.3047 98.0454 13.1658 97.6985 13.1737C97.3468 13.1693 97.0083 13.3071 96.7597 13.5558C96.5111 13.8046 96.3735 14.1432 96.3781 14.4948L96.378 14.4947Z" fill="white"/>
<path d="M101.33 12.4156H102.299V13.2257H102.374C102.636 12.6292 103.247 12.2644 103.896 12.3172C104.398 12.2794 104.891 12.4722 105.234 12.8411C105.578 13.2101 105.735 13.7152 105.661 14.2138L105.661 17.5148H104.654V14.4665C104.654 13.6471 104.298 13.2396 103.554 13.2396C103.213 13.2237 102.882 13.3575 102.648 13.6058C102.414 13.8542 102.3 14.1924 102.336 14.5318V17.5149H101.33L101.33 12.4156Z" fill="white"/>
<path fill-rule="evenodd" clip-rule="evenodd" d="M114.296 16.1381C114.014 17.0999 113.083 17.7214 112.086 17.6133C111.406 17.6313 110.753 17.3494 110.299 16.8426C109.846 16.3357 109.638 15.6551 109.731 14.9813C109.64 14.3056 109.847 13.6239 110.298 13.1128C110.75 12.6017 111.4 12.3114 112.082 12.3172C113.501 12.3172 114.357 13.2866 114.357 14.8878V15.239H110.756V15.2954C110.724 15.6738 110.853 16.0481 111.112 16.3262C111.37 16.6043 111.734 16.7605 112.114 16.7562C112.606 16.8154 113.085 16.5711 113.327 16.138L114.296 16.1381ZM110.756 14.4947H113.331C113.357 14.1486 113.235 13.8078 112.996 13.5563C112.757 13.3047 112.423 13.1658 112.076 13.1737C111.725 13.1692 111.386 13.307 111.137 13.5557C110.889 13.8045 110.751 14.1431 110.756 14.4948L110.756 14.4947Z" fill="white"/>
<path d="M115.754 10.4251H116.761V17.515H115.754V10.4251Z" fill="white"/>
</g>
<defs>
<clipPath id="clip0_1_5518">
<rect width="134.722" height="45.2974" fill="white" transform="translate(0.368164 0.870117)"/>
</clipPath>
<clipPath id="clip1_1_5518">
<rect width="134.512" height="45.2974" fill="white" transform="translate(0.368164 0.870117)"/>
</clipPath>
</defs>
</svg>
