<svg width="42" height="42" viewBox="0 0 42 42" fill="none" xmlns="http://www.w3.org/2000/svg">
<ellipse cx="21.0502" cy="21" rx="20.8776" ry="21" fill="#5D7ED3"/>
<path fill-rule="evenodd" clip-rule="evenodd" d="M20.5591 9.002C22.3636 9.002 24.1679 9.00767 25.9722 9.00007C27.6489 8.99319 29.1517 9.49513 30.4489 10.5632C31.6276 11.5339 32.4246 12.7685 32.7612 14.2702C32.8841 14.8181 32.9591 15.3894 32.9616 15.9503C32.979 19.6429 32.9922 23.3357 32.9636 27.0279C32.9426 29.7365 31.7192 31.7817 29.3973 33.1389C28.4016 33.7208 27.3006 33.9855 26.1466 33.9866C22.4157 33.9903 18.6848 34.019 14.9545 33.9771C12.4261 33.9487 10.4746 32.7939 9.12763 30.6393C8.45879 29.5692 8.14388 28.3829 8.14166 27.1217C8.135 23.3677 8.10523 19.6131 8.1509 15.8597C8.18354 13.1853 9.43354 11.1723 11.7302 9.84123C12.74 9.25575 13.8557 9.00164 15.0241 9.00201C16.8693 9.00201 18.7142 9.00201 20.5591 9.00201V9.002ZM30.7668 21.5053C30.7668 19.6826 30.7673 17.8599 30.7667 16.0373C30.7662 15.3269 30.6681 14.6318 30.3558 13.989C29.4819 12.1891 28.0386 11.2401 26.0503 11.2267C22.3868 11.2019 18.7232 11.2175 15.0597 11.2209C13.868 11.2218 12.8075 11.5979 11.9144 12.4026C10.8408 13.3705 10.3421 14.5947 10.3428 16.037C10.3441 19.6346 10.3414 23.2322 10.3463 26.8298C10.3466 27.1697 10.3594 27.5151 10.4188 27.8486C10.7284 29.5854 11.7149 30.7789 13.3297 31.4532C13.9161 31.6984 14.5334 31.7695 15.1612 31.7699C18.6417 31.7712 22.122 31.771 25.6025 31.7695C25.887 31.7693 26.1725 31.7665 26.4563 31.7445C27.9768 31.626 29.1536 30.9068 30.0043 29.6458C30.5467 28.8422 30.7673 27.9381 30.767 26.9734C30.7665 25.1508 30.7668 23.3281 30.7668 21.5053H30.7668Z" fill="white"/>
<path fill-rule="evenodd" clip-rule="evenodd" d="M20.6646 27.8533C17.2135 27.9416 14.3322 25.1385 14.2425 21.6054C14.1541 18.1307 16.9391 15.2268 20.4458 15.1372C23.8967 15.0488 26.7784 17.8522 26.8681 21.385C26.9565 24.8597 24.1713 27.7637 20.6646 27.8533ZM24.6927 21.4947C24.692 19.1983 22.8252 17.3209 20.5497 17.3282C18.2718 17.3354 16.4299 19.1888 16.418 21.4858C16.4062 23.7755 18.2674 25.6565 20.5508 25.6625C22.8269 25.6684 24.6936 23.79 24.6927 21.4947V21.4947Z" fill="white"/>
<path d="M27.2044 16.4548C26.3022 16.4515 25.5589 15.7013 25.5694 14.805C25.5799 13.9005 26.3306 13.1595 27.2238 13.1714C28.1156 13.1832 28.8488 13.9245 28.8489 14.8145C28.8492 15.7153 28.1045 16.458 27.2044 16.4548Z" fill="white"/>
</svg>
