<svg width="43" height="42" viewBox="0 0 43 42" fill="none" xmlns="http://www.w3.org/2000/svg">
<ellipse cx="21.7124" cy="21" rx="20.8776" ry="21" fill="#5D7ED3"/>
<g clip-path="url(#clip0_1_5509)">
<path d="M34.6366 12.7469C33.7221 13.1552 32.7393 13.4302 31.7079 13.5542C32.7611 12.9198 33.5699 11.9146 33.95 10.7167C32.9651 11.3042 31.8736 11.7312 30.7116 11.9615C29.7827 10.9646 28.4561 10.3417 26.9897 10.3417C23.6975 10.3417 21.2784 13.4312 22.0219 16.6385C17.7853 16.425 14.0282 14.3833 11.5127 11.2802C10.1768 13.5854 10.8199 16.601 13.0899 18.1281C12.2552 18.101 11.4682 17.8708 10.7816 17.4865C10.7257 19.8625 12.4189 22.0854 14.8712 22.5802C14.1535 22.776 13.3675 22.8219 12.568 22.6677C13.2163 24.7052 15.099 26.1875 17.3317 26.2292C15.188 27.9198 12.4872 28.675 9.78223 28.3542C12.0388 29.8094 14.72 30.6583 17.5989 30.6583C27.0663 30.6583 32.4152 22.6156 32.0921 15.4021C33.0883 14.6781 33.9531 13.775 34.6366 12.7469Z" fill="white"/>
</g>
<defs>
<clipPath id="clip0_1_5509">
<rect width="24.8543" height="25" fill="white" transform="translate(9.78223 8)"/>
</clipPath>
</defs>
</svg>
