<svg width="43" height="42" viewBox="0 0 43 42" fill="none" xmlns="http://www.w3.org/2000/svg">
<ellipse cx="21.3745" cy="21" rx="20.8776" ry="21" fill="#5D7ED3"/>
<path fill-rule="evenodd" clip-rule="evenodd" d="M9.44434 21.0339V19.958C9.44914 19.9146 9.45718 19.8714 9.45805 19.8279C9.47975 18.7618 9.52738 17.6974 9.63136 16.6356C9.69509 15.9849 9.76061 15.3328 9.93483 14.7021C10.253 13.5506 10.9835 12.7967 12.1284 12.4836C12.6933 12.329 13.2786 12.2862 13.8601 12.2447C14.7273 12.1829 15.5954 12.1233 16.464 12.0961C17.9479 12.0493 19.4325 12.0076 20.9169 12.0015C23.5572 11.9905 26.1967 12.0359 28.8311 12.2381C29.4316 12.2843 30.0328 12.3344 30.6213 12.4678C31.7964 12.7339 32.5855 13.4474 32.9255 14.62C33.0637 15.0962 33.1281 15.5962 33.203 16.0891C33.2814 16.6048 33.3061 17.1256 33.3044 17.6491C33.2974 19.5744 33.303 21.4997 33.3 23.4248C33.2997 23.7011 33.2873 23.978 33.2653 24.2533C33.2154 24.8767 33.1402 25.4976 33.0026 26.1083C32.7047 27.4297 31.9094 28.257 30.5954 28.5459C29.9268 28.693 29.2434 28.741 28.5624 28.784C27.6669 28.8406 26.7703 28.8874 25.8735 28.9172C24.8459 28.9514 23.8178 28.962 22.7899 28.9838C22.6598 28.9865 22.5298 28.9945 22.3999 29H20.5544C20.5269 28.9965 20.4995 28.9905 20.4718 28.9899C19.8292 28.9794 19.1865 28.9746 18.544 28.958C17.7214 28.9368 16.8986 28.9204 16.0773 28.8756C15.1323 28.8243 14.1879 28.7549 13.2454 28.6711C12.8483 28.6358 12.4462 28.5797 12.0642 28.4699C10.889 28.1316 10.1692 27.3356 9.89504 26.1329C9.67853 25.184 9.60094 24.2153 9.54348 23.2463C9.50175 22.5466 9.48566 21.8456 9.45753 21.1452C9.45595 21.1079 9.44893 21.071 9.44434 21.0339L9.44434 21.0339ZM19.0522 24.1415C21.1425 22.9229 23.2166 21.7138 25.3057 20.4957C23.2162 19.2777 21.1408 18.0678 19.0522 16.8503V24.1415Z" fill="white"/>
</svg>
