<svg width="18" height="18" viewBox="0 0 18 18" fill="none" xmlns="http://www.w3.org/2000/svg">
<path d="M0 9C0 9.29837 0.118526 9.58452 0.329505 9.7955C0.540483 10.0065 0.826631 10.125 1.125 10.125H7.6875C7.73723 10.125 7.78492 10.1448 7.82008 10.1799C7.85525 10.2151 7.875 10.2628 7.875 10.3125V16.875C7.875 17.1734 7.99353 17.4595 8.2045 17.6705C8.41548 17.8815 8.70163 18 9 18C9.29837 18 9.58452 17.8815 9.7955 17.6705C10.0065 17.4595 10.125 17.1734 10.125 16.875V10.3125C10.125 10.2628 10.1448 10.2151 10.1799 10.1799C10.2151 10.1448 10.2628 10.125 10.3125 10.125H16.875C17.1734 10.125 17.4595 10.0065 17.6705 9.7955C17.8815 9.58452 18 9.29837 18 9C18 8.70163 17.8815 8.41548 17.6705 8.2045C17.4595 7.99353 17.1734 7.875 16.875 7.875H10.3125C10.2628 7.875 10.2151 7.85525 10.1799 7.82008C10.1448 7.78492 10.125 7.73723 10.125 7.6875V1.125C10.125 0.826631 10.0065 0.540483 9.7955 0.329505C9.58452 0.118526 9.29837 0 9 0C8.70163 0 8.41548 0.118526 8.2045 0.329505C7.99353 0.540483 7.875 0.826631 7.875 1.125V7.6875C7.875 7.73723 7.85525 7.78492 7.82008 7.82008C7.78492 7.85525 7.73723 7.875 7.6875 7.875H1.125C0.826631 7.875 0.540483 7.99353 0.329505 8.2045C0.118526 8.41548 0 8.70163 0 9H0Z" fill="white"/>
</svg>
